<?xml version="1.0" encoding="utf-8"?>
<!-- Generator: Adobe Illustrator 16.0.0, SVG Export Plug-In . SVG Version: 6.00 Build 0)  -->
<!DOCTYPE svg PUBLIC "-//W3C//DTD SVG 1.1//EN" "http://www.w3.org/Graphics/SVG/1.1/DTD/svg11.dtd">
<svg version="1.1" id="Layer_1" xmlns="http://www.w3.org/2000/svg" xmlns:xlink="http://www.w3.org/1999/xlink" x="0px" y="0px"
	 width="258.108px" height="90.54px" viewBox="0 0 258.108 90.54" enable-background="new 0 0 258.108 90.54" xml:space="preserve">
<path fill="#FFFFFF" d="M271.825,27.413c0-0.039-0.002-0.094-0.006-0.17c-0.006-0.074-0.008-0.131-0.008-0.168
	c0-0.816,0.17-1.597,0.51-2.345c0.342-0.749,0.859-1.477,1.557-2.18c0.125-0.125,0.311-0.303,0.559-0.539
	c0.465-0.436,0.775-0.762,0.928-0.982c0.143-0.207,0.244-0.43,0.314-0.672c0.066-0.242,0.1-0.514,0.1-0.822
	c0-0.451-0.082-0.781-0.244-0.998c-0.164-0.217-0.414-0.324-0.756-0.324c-0.357,0-0.621,0.135-0.785,0.4
	c-0.164,0.264-0.248,0.689-0.248,1.271c0,0.111,0.002,0.195,0.006,0.256c0.006,0.059,0.008,0.111,0.008,0.158h-1.875
	c0-0.047-0.004-0.107-0.008-0.186s-0.008-0.135-0.008-0.164c0-1.111,0.24-1.922,0.715-2.434s1.225-0.768,2.25-0.768
	c0.959,0,1.695,0.232,2.203,0.695s0.762,1.135,0.762,2.01c0,0.408-0.047,0.785-0.137,1.129s-0.23,0.672-0.422,0.984
	c-0.15,0.246-0.482,0.629-1,1.148c-0.27,0.266-0.479,0.477-0.621,0.635l-0.008,0.006c-1.025,1.122-1.607,1.911-1.746,2.368h3.807
	v1.691H271.825z"/>
<path fill="#180D0B" stroke="#FFFFFF" stroke-width="2.0001" stroke-linecap="round" stroke-linejoin="round" stroke-miterlimit="2.6131" d="
	M120.875,28.321c0,0.186-0.063,0.373-0.186,0.555s-0.246,0.346-0.371,0.502c-0.391,0.625-0.994,1.218-1.805,1.777
	c-0.723,0.412-1.435,0.836-2.14,1.27c-0.596,0.312-1.193,0.615-1.793,0.914c-0.705,0.381-1.242,0.785-1.611,1.219
	c-0.225,0.592-0.305,1.352-0.234,2.283c0.053,0.676,0.074,1.209,0.074,1.586c0,1.127-0.201,2.037-0.602,2.73
	c-0.252,0.594-0.375,0.939-0.375,1.045c0,0.207,0.084,0.393,0.25,0.549c0.168,0.156,0.463,0.277,0.887,0.365
	c0.418,0.082,0.713,0.182,0.877,0.303c0.607,0.455,0.916,1.213,0.916,2.271c0-0.045-0.037,0.502-0.107,1.637
	c-0.334,1.746-0.906,3.285-1.713,4.625c-0.947,1.58-2.162,2.699-3.643,3.35c-0.516,0.229-1.082,0.342-1.699,0.342
	c-0.846,0-1.547-0.209-2.105-0.621c-1.572-1.178-2.277-3.301-2.113-6.373c0.049-0.992,0.232-2.133,0.555-3.428
	c0.316-1.127,0.621-2.258,0.916-3.389c0.127-0.121,0.242-0.146,0.348-0.078c0.053,0.16,0.01,0.598-0.127,1.309
	c-0.459,2.133-0.688,3.67-0.688,4.619c0,1.422,0.33,2.639,0.994,3.645c0.652,0.729,1.529,1.092,2.621,1.092
	c1.211,0,2.396-0.451,3.545-1.348c1.094-0.871,1.859-1.885,2.301-3.047c0.117-0.693,0.064-1.143-0.154-1.355
	c-0.52-0.152-1.041-0.299-1.564-0.434c-0.604-0.195-0.99-0.523-1.162-0.988c-0.111-0.398-0.168-0.836-0.168-1.309
	c0-1.143,0.305-2.344,0.902-3.605c0,0,0-0.65,0-1.955c-0.014-0.281-0.021-0.545-0.021-0.801c0-1.334,0.309-2.561,0.924-3.67
	c0.459-0.828,1.27-1.564,2.428-2.205c0.992-0.543,1.969-1.07,2.929-1.586c0.484-0.301,0.951-0.585,1.408-0.867
	c0.561-0.365,1.004-0.721,1.34-1.066C120.821,28.118,120.875,28.161,120.875,28.321z M92.798,53.609
	c-0.287,0.512-0.568,1.014-0.855,1.514c-0.281,0.498-0.422,1.078-0.422,1.736c0,0.195,0.08,0.338,0.242,0.42
	c0.172,0,0.252,0.01,0.234,0.027c0.078-0.053,0.193-0.227,0.348-0.52c0.119-0.248,0.264-0.369,0.426-0.369
	c0.066,0,0.137,0.018,0.207,0.053c0.102,0.09,0.168,0.242,0.199,0.449c0.031,0.205,0.053,0.404,0.07,0.59
	c-0.127,0.438-0.322,0.824-0.582,1.152c-0.316,0.416-0.668,0.625-1.057,0.625c-0.334,0-0.643-0.209-0.93-0.625
	c-0.119-0.26-0.18-0.572-0.18-0.936c0-0.264,0.053-0.715,0.154-1.361c0.338-0.965,0.898-1.906,1.691-2.828
	c0.053-0.123,0.145-0.178,0.285-0.178C92.794,53.359,92.847,53.441,92.798,53.609z M85.917,58.004l0.168,0.025
	c0.372,0.438,0.969,0.975,1.793,1.613l-0.049,0.217c-0.369,0.428-0.951,1.01-1.745,1.736c-0.197,0.018-0.488-0.104-0.877-0.367
	c-0.268-0.205-0.639-0.568-1.109-1.092c-0.035-0.084-0.035-0.178,0-0.277L85.917,58.004z M82.28,55.898
	c0.352-0.434,0.908-1.08,1.664-1.945h0.154c0.424,0.416,1.092,0.918,2.014,1.512c0.105,0.104,0.145,0.152,0.127,0.152l1.422-1.664
	h0.143c0.822,0.715,1.502,1.242,2.025,1.59v0.203c-0.26,0.348-0.529,0.693-0.814,1.041c-0.318,0.398-0.625,0.709-0.93,0.939
	c-0.369-0.035-1.008-0.424-1.92-1.17c-0.115-0.125-0.211-0.273-0.301-0.441l-0.074,0.047c-0.404,0.498-0.818,0.98-1.238,1.434
	c-0.088,0.07-0.176,0.105-0.271,0.105c-0.119,0-0.256-0.049-0.406-0.148c-0.148-0.096-0.285-0.186-0.41-0.273
	c-0.246-0.176-0.484-0.359-0.709-0.545c-0.281-0.213-0.479-0.42-0.59-0.619L82.28,55.898z M95.753,51.846h0.154
	c0.74,0.711,1.365,1.23,1.881,1.561l-0.049,0.203c-0.568,0.711-1.123,1.301-1.664,1.77c-0.164,0.021-0.467-0.105-0.904-0.383
	c-0.268-0.211-0.656-0.576-1.162-1.092V53.74L95.753,51.846z M93.908,47.76c0.59,0.525,1.27,1.027,2.025,1.508
	c0.023,0,0.049,0.021,0.076,0.066c0.025,0.043,0.057,0.055,0.092,0.037c0.318-0.398,0.779-0.943,1.393-1.637l0.221,0.086
	c0.488,0.469,1.139,0.959,1.945,1.475v0.164c-0.453,0.729-1,1.387-1.639,1.967c-0.064,0.035-0.137,0.053-0.207,0.053
	c-0.082,0-0.395-0.148-0.928-0.443c-0.301-0.221-0.697-0.584-1.186-1.092h-0.053c-0.453,0.607-0.885,1.119-1.291,1.535
	c-0.074,0.018-0.148,0.025-0.221,0.025c-0.172,0-0.439-0.131-0.809-0.385c-0.371-0.262-0.604-0.422-0.697-0.49
	c-0.26-0.213-0.453-0.42-0.58-0.625v-0.139l1.703-2.105H93.908z M94.718,42.045c0.99-2.375,2.436-4.148,4.338-5.305
	c0.066-0.018,0.176-0.07,0.326-0.152c0.15-0.086,0.26-0.129,0.33-0.129c0.094,0,0.178,0.033,0.248,0.104v0.178l-1.111,2.184
	c-2.334,1.369-3.844,3.545-4.545,6.527c-0.021,0.176-0.133,0.406-0.322,0.697c-0.135,0-0.236-0.07-0.295-0.205
	c-0.035-0.229-0.012-0.549,0.066-0.965c0.102-0.482,0.154-0.811,0.154-0.988c0-0.416-0.154-0.732-0.453-0.953
	c-0.424-0.127-0.867-0.191-1.344-0.191c-1.15,0-2.184,0.295-3.096,0.889c-0.824,0.533-1.344,1.027-1.559,1.486l0.1,0.053h4.285
	c0.217,0.029,0.34,0.133,0.375,0.303c-0.035,0.313-0.193,0.658-0.48,1.039c-0.246,0.313-0.484,0.639-0.709,0.967
	c-1.092,1.768-1.779,2.816-2.061,3.146c-0.973,1.145-2.049,1.717-3.229,1.717c-0.18,0-0.357-0.01-0.529-0.027
	c-0.352-0.051-0.695-0.217-1.029-0.494c-0.34-0.281-0.547-0.594-0.635-0.939c-0.281-0.65-0.428-1.525-0.428-2.617v-6.219
	c0-0.23-0.018-0.586-0.061-1.066c-0.045-0.484-0.066-0.85-0.066-1.092c0-0.469,0.063-0.854,0.18-1.17
	c0.217-0.398,0.477-1.002,0.775-1.816c0.084-0.213,0.164-0.264,0.234-0.164l0.18,0.104c0,0.313-0.025,0.725-0.078,1.23
	c-0.07,0.551-0.102,0.967-0.102,1.244c-0.035,1.305-0.063,2.604-0.08,3.896c-0.018,1.49,0.053,2.781,0.207,3.873
	c0.352,1.109,0.828,1.795,1.432,2.059c0.252,0.049,0.502,0.074,0.762,0.074c1.344,0,2.604-0.686,3.779-2.059
	c0.234-0.359,0.348-0.586,0.348-0.672c-0.867,0-2.162-0.018-3.881-0.047c-0.232,0-0.401-0.045-0.506-0.131
	c-0.031-0.082-0.049-0.182-0.049-0.291c0-0.033,0.119-0.359,0.362-0.979c1.074-1.617,2.713-2.855,4.916-3.719
	c0.705-0.281,1.289-0.42,1.752-0.42c0.424,0,0.771,0.117,1.049,0.344c0.199,0.203,0.33,0.438,0.396,0.697H94.718z M75.624,30.963
	l0.063-0.012l0.014,0.012c0.053,0.287-0.115,0.824-0.502,1.613c-0.045,0.082-0.08,0.164-0.111,0.246
	c-0.029,0.082-0.057,0.156-0.082,0.221c-0.045,0.121-0.076,0.27-0.098,0.447s-0.021,0.352-0.004,0.523
	c0.012,0.174,0.061,0.326,0.141,0.451c0.074,0.131,0.193,0.203,0.348,0.23c0,0,0.018-0.045,0.057-0.135
	c0.041-0.086,0.084-0.188,0.137-0.295c0.053-0.113,0.102-0.221,0.15-0.324c0.043-0.109,0.084-0.178,0.105-0.213
	c0.098,0.068,0.172,0.174,0.232,0.307c0.063,0.135,0.107,0.262,0.133,0.383v0.012c0.057,0.33-0.004,0.707-0.184,1.127
	c-0.195,0.326-0.428,0.512-0.697,0.559c-0.145,0.027-0.273,0.006-0.379-0.061c-0.109-0.068-0.203-0.156-0.285-0.268
	c-0.08-0.109-0.146-0.23-0.195-0.359c-0.043-0.135-0.084-0.256-0.105-0.365c-0.131-0.633,0.021-1.512,0.463-2.625
	c0.234-0.525,0.459-0.949,0.67-1.27L75.624,30.963z M74.229,38.057c-0.059,0.027-0.119,0.07-0.182,0.121
	c-0.057,0.057-0.123,0.109-0.186,0.162c-0.064,0.051-0.135,0.082-0.205,0.1c-0.076,0.016-0.15-0.006-0.227-0.063
	c-0.096-0.061-0.172-0.143-0.229-0.254c-0.053-0.109-0.092-0.24-0.113-0.383c-0.023-0.143-0.027-0.289-0.018-0.438
	c0.008-0.146,0.021-0.295,0.047-0.438c0.098-0.406,0.256-0.637,0.484-0.697c0.23-0.061,0.508,0.039,0.832,0.291
	c0.164,0.139,0.301,0.277,0.406,0.42c0.109,0.143,0.203,0.289,0.277,0.445c0.07,0.16,0.137,0.326,0.193,0.498
	c0.063,0.174,0.111,0.344,0.146,0.504c0.039-0.152,0.078-0.326,0.105-0.52c0.031-0.195,0.07-0.395,0.109-0.6
	c0.045-0.203,0.111-0.402,0.203-0.602c0.088-0.199,0.221-0.385,0.393-0.563c0.127-0.148,0.299-0.248,0.502-0.309
	c0.197-0.039,0.369-0.021,0.52,0.064c0.145,0.088,0.264,0.199,0.361,0.344c0.008,0.246-0.031,0.523-0.119,0.832
	c-0.084,0.307-0.176,0.605-0.27,0.896c-0.043-0.096-0.088-0.199-0.131-0.32c-0.041-0.117-0.123-0.199-0.242-0.238
	c-0.207-0.061-0.379-0.035-0.516,0.072c-0.141,0.113-0.246,0.234-0.326,0.369c-0.031,0.068-0.074,0.191-0.127,0.363
	c-0.053,0.174-0.107,0.383-0.168,0.621c-0.063,0.242-0.119,0.498-0.176,0.771c-0.053,0.268-0.105,0.527-0.154,0.77
	c-0.049,0.248-0.084,0.465-0.115,0.656c-0.031,0.189-0.049,0.328-0.057,0.412c-0.027-0.01-0.041-0.041-0.041-0.096
	c0-0.053-0.021-0.078-0.064-0.07c-0.018-0.064-0.035-0.135-0.049-0.195c-0.018-0.064-0.027-0.156-0.027-0.271
	c0-0.248-0.008-0.496-0.021-0.752c-0.014-0.254-0.043-0.498-0.098-0.73c-0.047-0.23-0.131-0.451-0.25-0.66
	C74.585,38.365,74.427,38.195,74.229,38.057z M80.954,37.59l0.049,0.178l-0.049,1.334l0.168,4.686c0,3.5-1.207,6.678-3.617,9.52
	c-1.313,1.465-2.791,2.197-4.434,2.197c-1.74,0-3.102-0.881-4.08-2.639c-0.439-1.02-0.633-1.994-0.58-2.934
	c0-2.008,0.621-4.607,1.857-7.797h0.076l0.053,0.039c0,0.234-0.371,1.734-1.111,4.494l-0.127,1.141c0,2.252,1.088,3.738,3.264,4.459
	c0.287,0.115,0.771,0.203,1.457,0.25c2.41,0,4.369-1.383,5.885-4.15c0.354-0.854,0.529-1.635,0.529-2.336
	c0-0.559-0.115-1.934-0.348-4.125l0.877-4.316H80.954z M75.286,43.354h0.025c0.027,0,0.041,0.082,0.041,0.242
	c0.516,0.846,1.158,1.377,1.924,1.6c0.092,0.018,0.141,0.039,0.141,0.064c0,0.125-0.523,0.729-1.576,1.803
	c-0.164,0.15-0.316,0.225-0.463,0.225c-0.471,0-1.008-0.346-1.598-1.039c-0.154-0.26-0.234-0.486-0.234-0.672v-0.064
	c0-0.23,0.154-0.49,0.463-0.785L75.286,43.354z M71.903,29.846l0.789-0.468c0.053-0.018,0.148,0.045,0.295,0.191
	c-0.076,0.082-0.336,0.412-0.771,0.988c-0.303,0.416-0.611,0.723-0.93,0.928l-4.387,1.98c-0.863,0.381-1.344,0.605-1.449,0.67
	c-0.516,0.33-0.832,0.742-0.951,1.232c-0.07,1.43-0.141,2.867-0.207,4.307c-0.088,1.75-0.316,3.154-0.695,4.213
	c-0.529,0.975-0.796,1.469-0.814,1.486c-0.389,0.516-0.832,0.805-1.344,0.861c-0.867,0.238-1.598,0.85-2.193,1.842
	c-0.463,0.863-0.924,1.729-1.379,2.604c-0.154,0.217-0.316,0.443-0.479,0.672c-0.189,0.277-0.416,0.451-0.684,0.521
	c-0.92,0.086-2.281,0.225-4.092,0.42c-0.074-0.035-0.176-0.109-0.295-0.217c0.07-0.17,0.229-0.313,0.475-0.434
	c0.322-0.16,0.508-0.256,0.557-0.291c0.973-0.467,1.941-0.926,2.906-1.381c1.074-0.604,1.854-1.348,2.348-2.236
	c0.387-0.693,0.779-1.396,1.172-2.107c0.457-0.797,1.021-1.334,1.691-1.615c0.809-0.17,1.355-0.502,1.637-1.002
	c0.154-0.398,0.234-0.943,0.234-1.637v-4.035c0-1.313,0.509-2.588,1.537-3.822c0.471-0.566,1.488-1.199,3.057-1.892L71.903,29.846z
	 M51.595,47.432c-0.119,0.844-0.576,1.971-1.369,3.375c-0.211,0.381-0.582,0.637-1.109,0.775c-0.436,0.107-0.891,0.221-1.354,0.342
	c-0.334,0.1-0.844,0.248-1.523,0.443c-0.162,0-0.26-0.049-0.295-0.152c0-0.127,0.115-0.256,0.348-0.395
	c0.705-0.412,1.41-0.818,2.115-1.217c0.774-0.49,1.432-0.984,1.977-1.488c0.164-0.211,0.211-0.498,0.154-0.861
	c-0.105-0.256-0.225-0.43-0.361-0.52c-0.18,0.035-0.348,0.051-0.506,0.051c-0.635,0-1.109-0.215-1.432-0.648
	c-0.119-0.205-0.18-0.416-0.18-0.646c0-0.246,0.078-0.551,0.232-0.914c0.145-0.273,0.278-0.559,0.401-0.863
	c0.119-0.307,0.234-0.633,0.348-0.979c0.189-0.381,0.441-0.629,0.764-0.75c0.584-0.107,1.051,0.127,1.404,0.697
	c0.387,0.646,0.58,1.408,0.58,2.289C51.789,46.434,51.722,46.92,51.595,47.432z M46.509,37.59h0.066l-0.066,2.742l0.066,4.191
	c0,3.25-0.455,5.771-1.357,7.564c-0.119,0.252-0.207,0.383-0.268,0.383h-0.027c-0.07,0-0.109-0.113-0.127-0.334
	c0.207-0.693,0.307-1.945,0.307-3.758v-1.75l-0.088-3.225c0-0.832,0.295-2.105,0.891-3.834
	C46.204,38.334,46.407,37.676,46.509,37.59z M27.864,33.287l0.066-0.014l0.012,0.014c0.053,0.285-0.113,0.822-0.502,1.611
	c-0.043,0.086-0.078,0.168-0.109,0.246c-0.031,0.082-0.059,0.156-0.084,0.223c-0.045,0.121-0.076,0.268-0.098,0.445
	s-0.025,0.352-0.008,0.529c0.018,0.172,0.066,0.32,0.145,0.449c0.076,0.127,0.193,0.199,0.348,0.227c0,0,0.018-0.043,0.059-0.131
	c0.039-0.09,0.084-0.189,0.137-0.299c0.047-0.113,0.102-0.221,0.145-0.324c0.049-0.105,0.084-0.178,0.109-0.209
	c0.098,0.066,0.174,0.17,0.234,0.305c0.063,0.133,0.102,0.26,0.127,0.381v0.012c0.063,0.33,0,0.707-0.18,1.131
	c-0.199,0.322-0.428,0.508-0.697,0.557c-0.145,0.025-0.271,0.004-0.377-0.063c-0.111-0.068-0.203-0.154-0.287-0.268
	c-0.08-0.109-0.144-0.23-0.193-0.359c-0.049-0.135-0.084-0.252-0.111-0.365c-0.127-0.633,0.027-1.508,0.466-2.625
	c0.234-0.525,0.455-0.949,0.67-1.27L27.864,33.287z M26.472,40.385c-0.063,0.025-0.119,0.064-0.18,0.117
	c-0.063,0.055-0.125,0.107-0.186,0.16c-0.066,0.053-0.137,0.086-0.207,0.104c-0.074,0.014-0.15-0.004-0.229-0.064
	c-0.094-0.061-0.168-0.145-0.225-0.256c-0.059-0.109-0.094-0.234-0.115-0.381c-0.021-0.145-0.031-0.291-0.021-0.439
	c0.008-0.146,0.025-0.293,0.053-0.438c0.096-0.406,0.256-0.637,0.484-0.697s0.506,0.039,0.832,0.291
	c0.164,0.139,0.298,0.277,0.404,0.42c0.111,0.143,0.203,0.295,0.279,0.447c0.07,0.16,0.131,0.324,0.193,0.498
	c0.061,0.172,0.105,0.342,0.141,0.502c0.043-0.152,0.08-0.324,0.109-0.52c0.031-0.195,0.066-0.395,0.111-0.598
	c0.043-0.205,0.109-0.404,0.201-0.604c0.088-0.199,0.221-0.385,0.393-0.563c0.129-0.143,0.297-0.248,0.502-0.309
	c0.199-0.039,0.371-0.018,0.516,0.066c0.15,0.086,0.27,0.199,0.361,0.342c0.01,0.246-0.025,0.523-0.113,0.832
	c-0.09,0.307-0.178,0.605-0.273,0.896c-0.039-0.096-0.084-0.199-0.129-0.32c-0.043-0.117-0.123-0.195-0.242-0.238
	c-0.207-0.061-0.379-0.035-0.52,0.074c-0.137,0.111-0.242,0.232-0.32,0.367c-0.035,0.07-0.076,0.191-0.129,0.365
	c-0.053,0.172-0.109,0.381-0.168,0.619c-0.061,0.242-0.119,0.498-0.176,0.771c-0.057,0.27-0.105,0.529-0.154,0.771
	c-0.049,0.246-0.088,0.463-0.113,0.654c-0.031,0.191-0.055,0.33-0.063,0.412c-0.021-0.01-0.035-0.039-0.035-0.096
	c0-0.053-0.021-0.078-0.066-0.07c-0.018-0.064-0.035-0.129-0.053-0.193c-0.018-0.066-0.027-0.156-0.027-0.273
	c0-0.248-0.004-0.494-0.018-0.75c-0.012-0.252-0.043-0.498-0.096-0.729c-0.053-0.234-0.137-0.455-0.252-0.662
	C26.83,40.688,26.671,40.52,26.472,40.385z M38.202,51.846c0.154,0.152,0.326,0.291,0.51,0.412c0.186,0.125,0.375,0.225,0.574,0.299
	c0.035,0.018,0.07,0.031,0.105,0.035c0.029,0,0.064,0.008,0.1,0.018c0.035,0.008,0.066,0.021,0.098,0.039s0.057,0.039,0.084,0.061
	c0,0.025-0.004,0.057-0.018,0.082c-0.014,0.031-0.031,0.061-0.049,0.082c-0.014,0.025-0.035,0.053-0.057,0.078
	c-0.023,0.025-0.041,0.047-0.059,0.064c-0.074,0.082-0.158,0.17-0.236,0.26c-0.084,0.088-0.168,0.174-0.252,0.262
	c-0.088,0.082-0.172,0.168-0.26,0.26c-0.084,0.086-0.172,0.168-0.256,0.246c-0.053,0.053-0.105,0.109-0.162,0.174
	c-0.057,0.061-0.115,0.125-0.176,0.186c-0.059,0.066-0.119,0.127-0.182,0.188c-0.057,0.061-0.113,0.104-0.166,0.139
	c-0.027,0.025-0.059,0.043-0.098,0.051c-0.039,0.01-0.08,0.018-0.123,0.027c-0.092-0.018-0.189-0.045-0.287-0.078
	c-0.102-0.035-0.197-0.074-0.291-0.127c-0.096-0.051-0.184-0.104-0.271-0.16c-0.084-0.051-0.168-0.111-0.248-0.168
	c-0.109-0.078-0.207-0.156-0.285-0.242c-0.084-0.084-0.164-0.174-0.234-0.266c-0.074-0.096-0.141-0.189-0.207-0.285
	c-0.066-0.1-0.127-0.195-0.189-0.287c0,0-0.008,0.01-0.035,0.031c-0.025,0.021-0.057,0.047-0.084,0.082
	c-0.029,0.035-0.07,0.074-0.109,0.113c-0.045,0.043-0.084,0.082-0.119,0.117c-0.031,0.033-0.066,0.064-0.098,0.094
	c-0.029,0.031-0.047,0.053-0.057,0.07c-0.119,0.107-0.238,0.225-0.361,0.342c-0.119,0.117-0.242,0.23-0.365,0.33
	c-0.127,0.104-0.256,0.199-0.396,0.285c-0.137,0.092-0.281,0.164-0.436,0.221c-0.105,0.027-0.203,0.031-0.299,0.014
	c-0.094-0.018-0.186-0.043-0.279-0.082c-0.088-0.039-0.18-0.086-0.268-0.143c-0.092-0.061-0.176-0.117-0.252-0.17
	c-0.07-0.057-0.141-0.117-0.215-0.182c-0.072-0.064-0.146-0.135-0.221-0.209c-0.07-0.076-0.137-0.154-0.199-0.238
	c-0.061-0.078-0.109-0.164-0.154-0.25c-0.043-0.092-0.078-0.184-0.1-0.273c-0.027-0.096-0.037-0.191-0.027-0.295
	c0.018-0.057,0.045-0.117,0.084-0.178c0.039-0.057,0.084-0.107,0.133-0.156c0.053-0.047,0.105-0.096,0.162-0.146
	c0.057-0.053,0.105-0.096,0.15-0.139c0.127-0.104,0.25-0.209,0.375-0.326c0.117-0.111,0.236-0.229,0.352-0.346
	c0.119-0.121,0.238-0.238,0.361-0.352c0.127-0.111,0.246-0.217,0.369-0.313c0.01,0,0.014,0,0.018-0.004
	c0.006-0.004,0.014-0.008,0.023-0.008c0.008,0,0.012,0,0.018-0.004c0.004-0.006,0.012-0.006,0.029,0.004
	c0.072,0.186,0.154,0.359,0.248,0.52c0.096,0.164,0.215,0.32,0.361,0.473c0.096,0.09,0.189,0.178,0.281,0.26
	c0.098,0.082,0.193,0.156,0.291,0.221c0.102,0.07,0.201,0.131,0.313,0.188c0.105,0.051,0.215,0.094,0.326,0.121l0.039,0.008
	c0.182-0.16,0.352-0.32,0.51-0.484c0.16-0.166,0.322-0.334,0.486-0.504c0.162-0.168,0.326-0.338,0.484-0.502s0.316-0.324,0.484-0.49
	c0.004-0.008,0.018-0.012,0.031-0.018c0.012-0.004,0.025-0.008,0.039-0.018c0.014-0.008,0.027-0.012,0.045-0.012
	s0.029,0.004,0.039,0.012c0.066,0.188,0.158,0.361,0.268,0.525C37.929,51.547,38.056,51.703,38.202,51.846z M43.456,29.235
	c0.453,0.025,0.73,0.225,0.824,0.597c0.043,0.195-0.063,0.477-0.309,0.85c-0.234,0.291-0.467,0.469-0.701,0.533
	c-0.109-0.168-0.285-0.281-0.527-0.334c-0.238-0.057-0.494,0.039-0.768,0.287c-0.271,0.242-0.516,0.576-0.727,0.986
	c-0.432,0.755-0.889,1.244-1.369,1.47c-0.48,0.221-0.867,0.232-1.154,0.033c-0.291-0.199-0.428-0.445-0.418-0.74
	c0-0.285,0.123-0.576,0.369-0.863c0.252-0.289,0.414-0.432,0.494-0.432c0.025,0.186,0.092,0.338,0.197,0.449
	c0.111,0.117,0.273,0.174,0.498,0.174s0.467-0.104,0.723-0.313c0.26-0.207,0.498-0.48,0.717-0.826
	c0.217-0.344,0.477-0.732,0.768-1.176C42.522,29.47,42.979,29.235,43.456,29.235z M37.286,39.318h-0.053
	c-0.824,1.768-1.898,2.596-3.225,2.488c-0.088,0-0.172,0-0.26,0c-0.109,0.016-0.168,0.068-0.168,0.164
	c0.053,0.463,0.08,0.932,0.08,1.395c0,2.861-0.828,5.646-2.48,8.355c-0.705,1.145-1.559,2.059-2.568,2.756
	c-1.109,0.793-2.267,1.191-3.484,1.191c-0.229,0-0.449-0.018-0.656-0.051c-0.621-0.066-1.215-0.33-1.787-0.795
	c-0.572-0.459-0.982-0.982-1.234-1.568c-0.387-0.953-0.576-2.049-0.576-3.283c0-1.492,0.291-3.207,0.877-5.145
	c0.064-0.23,0.145-0.455,0.236-0.68c0.088-0.221,0.221-0.387,0.393-0.49c0.154,0,0.234,0.053,0.234,0.156
	c-0.189,0.729-0.393,1.828-0.609,3.297c-0.064,0.477-0.1,0.91-0.1,1.309c0,1.66,0.537,2.813,1.611,3.455
	c0.568,0.346,1.246,0.52,2.039,0.52c1.057,0,2.095-0.277,3.109-0.836c1.344-0.729,2.383-1.764,3.123-3.111
	c0.705-1.27,1.059-2.641,1.059-4.113c0-1.027-0.125-2.041-0.375-3.047c0.08-0.762,0.176-1.344,0.299-1.742
	c0.066-0.1,0.154-0.143,0.256-0.125c0.08,0.051,0.137,0.156,0.168,0.313c0.035,0.156,0.113,0.242,0.232,0.26
	c0.234,0.051,0.453,0.074,0.66,0.074c1.006,0,1.803-0.395,2.383-1.193c0.125-0.211,0.252-0.531,0.389-0.965
	c0.07-1.404,0.34-2.617,0.801-3.645c0.053-0.066,0.119-0.109,0.207-0.127c0.102,0,0.154,0.066,0.154,0.191
	c0,1.395,0.371,2.254,1.111,2.566c0.369,0.16,0.703,0.242,1.008,0.242c0.281,0,0.523-0.074,0.723-0.217
	c0.172-0.256,0.467-0.572,0.889-0.953c0.084,0,0.15,0.043,0.195,0.125c-0.063,0.551-0.396,1.33-1.01,2.336
	c-0.586,0.697-0.93,1.092-1.031,1.195c-0.439,0.398-0.889,0.59-1.355,0.572C38.007,40.158,37.585,39.865,37.286,39.318z"/>
<path fill="#180D0B" d="M120.875,28.321c0,0.186-0.063,0.373-0.186,0.555s-0.246,0.346-0.371,0.502
	c-0.391,0.625-0.994,1.218-1.805,1.777c-0.723,0.412-1.435,0.836-2.14,1.27c-0.596,0.312-1.193,0.615-1.793,0.914
	c-0.705,0.381-1.242,0.785-1.611,1.219c-0.225,0.592-0.305,1.352-0.234,2.283c0.053,0.676,0.074,1.209,0.074,1.586
	c0,1.127-0.201,2.037-0.602,2.73c-0.252,0.594-0.375,0.939-0.375,1.045c0,0.207,0.084,0.393,0.25,0.549
	c0.168,0.156,0.463,0.277,0.887,0.365c0.418,0.082,0.713,0.182,0.877,0.303c0.607,0.455,0.916,1.213,0.916,2.271
	c0-0.045-0.037,0.502-0.107,1.637c-0.334,1.746-0.906,3.285-1.713,4.625c-0.947,1.58-2.162,2.699-3.643,3.35
	c-0.516,0.229-1.082,0.342-1.699,0.342c-0.846,0-1.547-0.209-2.105-0.621c-1.572-1.178-2.277-3.301-2.113-6.373
	c0.049-0.992,0.232-2.133,0.555-3.428c0.316-1.127,0.621-2.258,0.916-3.389c0.127-0.121,0.242-0.146,0.348-0.078
	c0.053,0.16,0.01,0.598-0.127,1.309c-0.459,2.133-0.688,3.67-0.688,4.619c0,1.422,0.33,2.639,0.994,3.645
	c0.652,0.729,1.529,1.092,2.621,1.092c1.211,0,2.396-0.451,3.545-1.348c1.094-0.871,1.859-1.885,2.301-3.047
	c0.117-0.693,0.064-1.143-0.154-1.355c-0.52-0.152-1.041-0.299-1.564-0.434c-0.604-0.195-0.99-0.523-1.162-0.988
	c-0.111-0.398-0.168-0.836-0.168-1.309c0-1.143,0.305-2.344,0.902-3.605c0,0,0-0.65,0-1.955c-0.014-0.281-0.021-0.545-0.021-0.801
	c0-1.334,0.309-2.561,0.924-3.67c0.459-0.828,1.27-1.564,2.428-2.205c0.992-0.543,1.969-1.07,2.929-1.586
	c0.484-0.301,0.951-0.585,1.408-0.867c0.561-0.365,1.004-0.721,1.34-1.066C120.821,28.118,120.875,28.161,120.875,28.321
	 M92.798,53.609c-0.287,0.512-0.568,1.014-0.855,1.514c-0.281,0.498-0.422,1.078-0.422,1.736c0,0.195,0.08,0.338,0.242,0.42
	c0.172,0,0.252,0.01,0.234,0.027c0.078-0.053,0.193-0.227,0.348-0.52c0.119-0.248,0.264-0.369,0.426-0.369
	c0.066,0,0.137,0.018,0.207,0.053c0.102,0.09,0.168,0.242,0.199,0.449c0.031,0.205,0.053,0.404,0.07,0.59
	c-0.127,0.438-0.322,0.824-0.582,1.152c-0.316,0.416-0.668,0.625-1.057,0.625c-0.334,0-0.643-0.209-0.93-0.625
	c-0.119-0.26-0.18-0.572-0.18-0.936c0-0.264,0.053-0.715,0.154-1.361c0.338-0.965,0.898-1.906,1.691-2.828
	c0.053-0.123,0.145-0.178,0.285-0.178C92.794,53.359,92.847,53.441,92.798,53.609z M85.917,58.004l0.168,0.025
	c0.372,0.438,0.969,0.975,1.793,1.613l-0.049,0.217c-0.369,0.428-0.951,1.01-1.745,1.736c-0.197,0.018-0.488-0.104-0.877-0.367
	c-0.268-0.205-0.639-0.568-1.109-1.092c-0.035-0.084-0.035-0.178,0-0.277L85.917,58.004z M82.28,55.898
	c0.352-0.434,0.908-1.08,1.664-1.945h0.154c0.424,0.416,1.092,0.918,2.014,1.512c0.105,0.104,0.145,0.152,0.127,0.152l1.422-1.664
	h0.143c0.822,0.715,1.502,1.242,2.025,1.59v0.203c-0.26,0.348-0.529,0.693-0.814,1.041c-0.318,0.398-0.625,0.709-0.93,0.939
	c-0.369-0.035-1.008-0.424-1.92-1.17c-0.115-0.125-0.211-0.273-0.301-0.441l-0.074,0.047c-0.404,0.498-0.818,0.98-1.238,1.434
	c-0.088,0.07-0.176,0.105-0.271,0.105c-0.119,0-0.256-0.049-0.406-0.148c-0.148-0.096-0.285-0.186-0.41-0.273
	c-0.246-0.176-0.484-0.359-0.709-0.545c-0.281-0.213-0.479-0.42-0.59-0.619L82.28,55.898z M95.753,51.846h0.154
	c0.74,0.711,1.365,1.23,1.881,1.561l-0.049,0.203c-0.568,0.711-1.123,1.301-1.664,1.77c-0.164,0.021-0.467-0.105-0.904-0.383
	c-0.268-0.211-0.656-0.576-1.162-1.092V53.74L95.753,51.846z M93.908,47.76c0.59,0.525,1.27,1.027,2.025,1.508
	c0.023,0,0.049,0.021,0.076,0.066c0.025,0.043,0.057,0.055,0.092,0.037c0.318-0.398,0.779-0.943,1.393-1.637l0.221,0.086
	c0.488,0.469,1.139,0.959,1.945,1.475v0.164c-0.453,0.729-1,1.387-1.639,1.967c-0.064,0.035-0.137,0.053-0.207,0.053
	c-0.082,0-0.395-0.148-0.928-0.443c-0.301-0.221-0.697-0.584-1.186-1.092h-0.053c-0.453,0.607-0.885,1.119-1.291,1.535
	c-0.074,0.018-0.148,0.025-0.221,0.025c-0.172,0-0.439-0.131-0.809-0.385c-0.371-0.262-0.604-0.422-0.697-0.49
	c-0.26-0.213-0.453-0.42-0.58-0.625v-0.139l1.703-2.105H93.908z M94.718,42.045c0.99-2.375,2.436-4.148,4.338-5.305
	c0.066-0.018,0.176-0.07,0.326-0.152c0.15-0.086,0.26-0.129,0.33-0.129c0.094,0,0.178,0.033,0.248,0.104v0.178l-1.111,2.184
	c-2.334,1.369-3.844,3.545-4.545,6.527c-0.021,0.176-0.133,0.406-0.322,0.697c-0.135,0-0.236-0.07-0.295-0.205
	c-0.035-0.229-0.012-0.549,0.066-0.965c0.102-0.482,0.154-0.811,0.154-0.988c0-0.416-0.154-0.732-0.453-0.953
	c-0.424-0.127-0.867-0.191-1.344-0.191c-1.15,0-2.184,0.295-3.096,0.889c-0.824,0.533-1.344,1.027-1.559,1.486l0.1,0.053h4.285
	c0.217,0.029,0.34,0.133,0.375,0.303c-0.035,0.313-0.193,0.658-0.48,1.039c-0.246,0.313-0.484,0.639-0.709,0.967
	c-1.092,1.768-1.779,2.816-2.061,3.146c-0.973,1.145-2.049,1.717-3.229,1.717c-0.18,0-0.357-0.01-0.529-0.027
	c-0.352-0.051-0.695-0.217-1.029-0.494c-0.34-0.281-0.547-0.594-0.635-0.939c-0.281-0.65-0.428-1.525-0.428-2.617v-6.219
	c0-0.23-0.018-0.586-0.061-1.066c-0.045-0.484-0.066-0.85-0.066-1.092c0-0.469,0.063-0.854,0.18-1.17
	c0.217-0.398,0.477-1.002,0.775-1.816c0.084-0.213,0.164-0.264,0.234-0.164l0.18,0.104c0,0.313-0.025,0.725-0.078,1.23
	c-0.07,0.551-0.102,0.967-0.102,1.244c-0.035,1.305-0.063,2.604-0.08,3.896c-0.018,1.49,0.053,2.781,0.207,3.873
	c0.352,1.109,0.828,1.795,1.432,2.059c0.252,0.049,0.502,0.074,0.762,0.074c1.344,0,2.604-0.686,3.779-2.059
	c0.234-0.359,0.348-0.586,0.348-0.672c-0.867,0-2.162-0.018-3.881-0.047c-0.232,0-0.401-0.045-0.506-0.131
	c-0.031-0.082-0.049-0.182-0.049-0.291c0-0.033,0.119-0.359,0.362-0.979c1.074-1.617,2.713-2.855,4.916-3.719
	c0.705-0.281,1.289-0.42,1.752-0.42c0.424,0,0.771,0.117,1.049,0.344c0.199,0.203,0.33,0.438,0.396,0.697H94.718z M75.624,30.963
	l0.063-0.012l0.014,0.012c0.053,0.287-0.115,0.824-0.502,1.613c-0.045,0.082-0.08,0.164-0.111,0.246
	c-0.029,0.082-0.057,0.156-0.082,0.221c-0.045,0.121-0.076,0.27-0.098,0.447s-0.021,0.352-0.004,0.523
	c0.012,0.174,0.061,0.326,0.141,0.451c0.074,0.131,0.193,0.203,0.348,0.23c0,0,0.018-0.045,0.057-0.135
	c0.041-0.086,0.084-0.188,0.137-0.295c0.053-0.113,0.102-0.221,0.15-0.324c0.043-0.109,0.084-0.178,0.105-0.213
	c0.098,0.068,0.172,0.174,0.232,0.307c0.063,0.135,0.107,0.262,0.133,0.383v0.012c0.057,0.33-0.004,0.707-0.184,1.127
	c-0.195,0.326-0.428,0.512-0.697,0.559c-0.145,0.027-0.273,0.006-0.379-0.061c-0.109-0.068-0.203-0.156-0.285-0.268
	c-0.08-0.109-0.146-0.23-0.195-0.359c-0.043-0.135-0.084-0.256-0.105-0.365c-0.131-0.633,0.021-1.512,0.463-2.625
	c0.234-0.525,0.459-0.949,0.67-1.27L75.624,30.963z M74.229,38.057c-0.059,0.027-0.119,0.07-0.182,0.121
	c-0.057,0.057-0.123,0.109-0.186,0.162c-0.064,0.051-0.135,0.082-0.205,0.1c-0.076,0.016-0.15-0.006-0.227-0.063
	c-0.096-0.061-0.172-0.143-0.229-0.254c-0.053-0.109-0.092-0.24-0.113-0.383c-0.023-0.143-0.027-0.289-0.018-0.438
	c0.008-0.146,0.021-0.295,0.047-0.438c0.098-0.406,0.256-0.637,0.484-0.697c0.23-0.061,0.508,0.039,0.832,0.291
	c0.164,0.139,0.301,0.277,0.406,0.42c0.109,0.143,0.203,0.289,0.277,0.445c0.07,0.16,0.137,0.326,0.193,0.498
	c0.063,0.174,0.111,0.344,0.146,0.504c0.039-0.152,0.078-0.326,0.105-0.52c0.031-0.195,0.07-0.395,0.109-0.6
	c0.045-0.203,0.111-0.402,0.203-0.602c0.088-0.199,0.221-0.385,0.393-0.563c0.127-0.148,0.299-0.248,0.502-0.309
	c0.197-0.039,0.369-0.021,0.52,0.064c0.145,0.088,0.264,0.199,0.361,0.344c0.008,0.246-0.031,0.523-0.119,0.832
	c-0.084,0.307-0.176,0.605-0.27,0.896c-0.043-0.096-0.088-0.199-0.131-0.32c-0.041-0.117-0.123-0.199-0.242-0.238
	c-0.207-0.061-0.379-0.035-0.516,0.072c-0.141,0.113-0.246,0.234-0.326,0.369c-0.031,0.068-0.074,0.191-0.127,0.363
	c-0.053,0.174-0.107,0.383-0.168,0.621c-0.063,0.242-0.119,0.498-0.176,0.771c-0.053,0.268-0.105,0.527-0.154,0.77
	c-0.049,0.248-0.084,0.465-0.115,0.656c-0.031,0.189-0.049,0.328-0.057,0.412c-0.027-0.01-0.041-0.041-0.041-0.096
	c0-0.053-0.021-0.078-0.064-0.07c-0.018-0.064-0.035-0.135-0.049-0.195c-0.018-0.064-0.027-0.156-0.027-0.271
	c0-0.248-0.008-0.496-0.021-0.752c-0.014-0.254-0.043-0.498-0.098-0.73c-0.047-0.23-0.131-0.451-0.25-0.66
	C74.585,38.365,74.427,38.195,74.229,38.057z M80.954,37.59l0.049,0.178l-0.049,1.334l0.168,4.686c0,3.5-1.207,6.678-3.617,9.52
	c-1.313,1.465-2.791,2.197-4.434,2.197c-1.74,0-3.102-0.881-4.08-2.639c-0.439-1.02-0.633-1.994-0.58-2.934
	c0-2.008,0.621-4.607,1.857-7.797h0.076l0.053,0.039c0,0.234-0.371,1.734-1.111,4.494l-0.127,1.141c0,2.252,1.088,3.738,3.264,4.459
	c0.287,0.115,0.771,0.203,1.457,0.25c2.41,0,4.369-1.383,5.885-4.15c0.354-0.854,0.529-1.635,0.529-2.336
	c0-0.559-0.115-1.934-0.348-4.125l0.877-4.316H80.954z M75.286,43.354h0.025c0.027,0,0.041,0.082,0.041,0.242
	c0.516,0.846,1.158,1.377,1.924,1.6c0.092,0.018,0.141,0.039,0.141,0.064c0,0.125-0.523,0.729-1.576,1.803
	c-0.164,0.15-0.316,0.225-0.463,0.225c-0.471,0-1.008-0.346-1.598-1.039c-0.154-0.26-0.234-0.486-0.234-0.672v-0.064
	c0-0.23,0.154-0.49,0.463-0.785L75.286,43.354z M71.903,29.846l0.789-0.468c0.053-0.018,0.148,0.045,0.295,0.191
	c-0.076,0.082-0.336,0.412-0.771,0.988c-0.303,0.416-0.611,0.723-0.93,0.928l-4.387,1.98c-0.863,0.381-1.344,0.605-1.449,0.67
	c-0.516,0.33-0.832,0.742-0.951,1.232c-0.07,1.43-0.141,2.867-0.207,4.307c-0.088,1.75-0.316,3.154-0.695,4.213
	c-0.529,0.975-0.796,1.469-0.814,1.486c-0.389,0.516-0.832,0.805-1.344,0.861c-0.867,0.238-1.598,0.85-2.193,1.842
	c-0.463,0.863-0.924,1.729-1.379,2.604c-0.154,0.217-0.316,0.443-0.479,0.672c-0.189,0.277-0.416,0.451-0.684,0.521
	c-0.92,0.086-2.281,0.225-4.092,0.42c-0.074-0.035-0.176-0.109-0.295-0.217c0.07-0.17,0.229-0.313,0.475-0.434
	c0.322-0.16,0.508-0.256,0.557-0.291c0.973-0.467,1.941-0.926,2.906-1.381c1.074-0.604,1.854-1.348,2.348-2.236
	c0.387-0.693,0.779-1.396,1.172-2.107c0.457-0.797,1.021-1.334,1.691-1.615c0.809-0.17,1.355-0.502,1.637-1.002
	c0.154-0.398,0.234-0.943,0.234-1.637v-4.035c0-1.313,0.509-2.588,1.537-3.822c0.471-0.566,1.488-1.199,3.057-1.892L71.903,29.846z
	 M51.595,47.432c-0.119,0.844-0.576,1.971-1.369,3.375c-0.211,0.381-0.582,0.637-1.109,0.775c-0.436,0.107-0.891,0.221-1.354,0.342
	c-0.334,0.1-0.844,0.248-1.523,0.443c-0.162,0-0.26-0.049-0.295-0.152c0-0.127,0.115-0.256,0.348-0.395
	c0.705-0.412,1.41-0.818,2.115-1.217c0.774-0.49,1.432-0.984,1.977-1.488c0.164-0.211,0.211-0.498,0.154-0.861
	c-0.105-0.256-0.225-0.43-0.361-0.52c-0.18,0.035-0.348,0.051-0.506,0.051c-0.635,0-1.109-0.215-1.432-0.648
	c-0.119-0.205-0.18-0.416-0.18-0.646c0-0.246,0.078-0.551,0.232-0.914c0.145-0.273,0.278-0.559,0.401-0.863
	c0.119-0.307,0.234-0.633,0.348-0.979c0.189-0.381,0.441-0.629,0.764-0.75c0.584-0.107,1.051,0.127,1.404,0.697
	c0.387,0.646,0.58,1.408,0.58,2.289C51.789,46.434,51.722,46.92,51.595,47.432z M46.509,37.59h0.066l-0.066,2.742l0.066,4.191
	c0,3.25-0.455,5.771-1.357,7.564c-0.119,0.252-0.207,0.383-0.268,0.383h-0.027c-0.07,0-0.109-0.113-0.127-0.334
	c0.207-0.693,0.307-1.945,0.307-3.758v-1.75l-0.088-3.225c0-0.832,0.295-2.105,0.891-3.834
	C46.204,38.334,46.407,37.676,46.509,37.59z M27.864,33.287l0.066-0.014l0.012,0.014c0.053,0.285-0.113,0.822-0.502,1.611
	c-0.043,0.086-0.078,0.168-0.109,0.246c-0.031,0.082-0.059,0.156-0.084,0.223c-0.045,0.121-0.076,0.268-0.098,0.445
	s-0.025,0.352-0.008,0.529c0.018,0.172,0.066,0.32,0.145,0.449c0.076,0.127,0.193,0.199,0.348,0.227c0,0,0.018-0.043,0.059-0.131
	c0.039-0.09,0.084-0.189,0.137-0.299c0.047-0.113,0.102-0.221,0.145-0.324c0.049-0.105,0.084-0.178,0.109-0.209
	c0.098,0.066,0.174,0.17,0.234,0.305c0.063,0.133,0.102,0.26,0.127,0.381v0.012c0.063,0.33,0,0.707-0.18,1.131
	c-0.199,0.322-0.428,0.508-0.697,0.557c-0.145,0.025-0.271,0.004-0.377-0.063c-0.111-0.068-0.203-0.154-0.287-0.268
	c-0.08-0.109-0.144-0.23-0.193-0.359c-0.049-0.135-0.084-0.252-0.111-0.365c-0.127-0.633,0.027-1.508,0.466-2.625
	c0.234-0.525,0.455-0.949,0.67-1.27L27.864,33.287z M26.472,40.385c-0.063,0.025-0.119,0.064-0.18,0.117
	c-0.063,0.055-0.125,0.107-0.186,0.16c-0.066,0.053-0.137,0.086-0.207,0.104c-0.074,0.014-0.15-0.004-0.229-0.064
	c-0.094-0.061-0.168-0.145-0.225-0.256c-0.059-0.109-0.094-0.234-0.115-0.381c-0.021-0.145-0.031-0.291-0.021-0.439
	c0.008-0.146,0.025-0.293,0.053-0.438c0.096-0.406,0.256-0.637,0.484-0.697s0.506,0.039,0.832,0.291
	c0.164,0.139,0.298,0.277,0.404,0.42c0.111,0.143,0.203,0.295,0.279,0.447c0.07,0.16,0.131,0.324,0.193,0.498
	c0.061,0.172,0.105,0.342,0.141,0.502c0.043-0.152,0.08-0.324,0.109-0.52c0.031-0.195,0.066-0.395,0.111-0.598
	c0.043-0.205,0.109-0.404,0.201-0.604c0.088-0.199,0.221-0.385,0.393-0.563c0.129-0.143,0.297-0.248,0.502-0.309
	c0.199-0.039,0.371-0.018,0.516,0.066c0.15,0.086,0.27,0.199,0.361,0.342c0.01,0.246-0.025,0.523-0.113,0.832
	c-0.09,0.307-0.178,0.605-0.273,0.896c-0.039-0.096-0.084-0.199-0.129-0.32c-0.043-0.117-0.123-0.195-0.242-0.238
	c-0.207-0.061-0.379-0.035-0.52,0.074c-0.137,0.111-0.242,0.232-0.32,0.367c-0.035,0.07-0.076,0.191-0.129,0.365
	c-0.053,0.172-0.109,0.381-0.168,0.619c-0.061,0.242-0.119,0.498-0.176,0.771c-0.057,0.27-0.105,0.529-0.154,0.771
	c-0.049,0.246-0.088,0.463-0.113,0.654c-0.031,0.191-0.055,0.33-0.063,0.412c-0.021-0.01-0.035-0.039-0.035-0.096
	c0-0.053-0.021-0.078-0.066-0.07c-0.018-0.064-0.035-0.129-0.053-0.193c-0.018-0.066-0.027-0.156-0.027-0.273
	c0-0.248-0.004-0.494-0.018-0.75c-0.012-0.252-0.043-0.498-0.096-0.729c-0.053-0.234-0.137-0.455-0.252-0.662
	C26.83,40.688,26.671,40.52,26.472,40.385z M38.202,51.846c0.154,0.152,0.326,0.291,0.51,0.412c0.186,0.125,0.375,0.225,0.574,0.299
	c0.035,0.018,0.07,0.031,0.105,0.035c0.029,0,0.064,0.008,0.1,0.018c0.035,0.008,0.066,0.021,0.098,0.039s0.057,0.039,0.084,0.061
	c0,0.025-0.004,0.057-0.018,0.082c-0.014,0.031-0.031,0.061-0.049,0.082c-0.014,0.025-0.035,0.053-0.057,0.078
	c-0.023,0.025-0.041,0.047-0.059,0.064c-0.074,0.082-0.158,0.17-0.236,0.26c-0.084,0.088-0.168,0.174-0.252,0.262
	c-0.088,0.082-0.172,0.168-0.26,0.26c-0.084,0.086-0.172,0.168-0.256,0.246c-0.053,0.053-0.105,0.109-0.162,0.174
	c-0.057,0.061-0.115,0.125-0.176,0.186c-0.059,0.066-0.119,0.127-0.182,0.188c-0.057,0.061-0.113,0.104-0.166,0.139
	c-0.027,0.025-0.059,0.043-0.098,0.051c-0.039,0.01-0.08,0.018-0.123,0.027c-0.092-0.018-0.189-0.045-0.287-0.078
	c-0.102-0.035-0.197-0.074-0.291-0.127c-0.096-0.051-0.184-0.104-0.271-0.16c-0.084-0.051-0.168-0.111-0.248-0.168
	c-0.109-0.078-0.207-0.156-0.285-0.242c-0.084-0.084-0.164-0.174-0.234-0.266c-0.074-0.096-0.141-0.189-0.207-0.285
	c-0.066-0.1-0.127-0.195-0.189-0.287c0,0-0.008,0.01-0.035,0.031c-0.025,0.021-0.057,0.047-0.084,0.082
	c-0.029,0.035-0.07,0.074-0.109,0.113c-0.045,0.043-0.084,0.082-0.119,0.117c-0.031,0.033-0.066,0.064-0.098,0.094
	c-0.029,0.031-0.047,0.053-0.057,0.07c-0.119,0.107-0.238,0.225-0.361,0.342c-0.119,0.117-0.242,0.23-0.365,0.33
	c-0.127,0.104-0.256,0.199-0.396,0.285c-0.137,0.092-0.281,0.164-0.436,0.221c-0.105,0.027-0.203,0.031-0.299,0.014
	c-0.094-0.018-0.186-0.043-0.279-0.082c-0.088-0.039-0.18-0.086-0.268-0.143c-0.092-0.061-0.176-0.117-0.252-0.17
	c-0.07-0.057-0.141-0.117-0.215-0.182c-0.072-0.064-0.146-0.135-0.221-0.209c-0.07-0.076-0.137-0.154-0.199-0.238
	c-0.061-0.078-0.109-0.164-0.154-0.25c-0.043-0.092-0.078-0.184-0.1-0.273c-0.027-0.096-0.037-0.191-0.027-0.295
	c0.018-0.057,0.045-0.117,0.084-0.178c0.039-0.057,0.084-0.107,0.133-0.156c0.053-0.047,0.105-0.096,0.162-0.146
	c0.057-0.053,0.105-0.096,0.15-0.139c0.127-0.104,0.25-0.209,0.375-0.326c0.117-0.111,0.236-0.229,0.352-0.346
	c0.119-0.121,0.238-0.238,0.361-0.352c0.127-0.111,0.246-0.217,0.369-0.313c0.01,0,0.014,0,0.018-0.004
	c0.006-0.004,0.014-0.008,0.023-0.008c0.008,0,0.012,0,0.018-0.004c0.004-0.006,0.012-0.006,0.029,0.004
	c0.072,0.186,0.154,0.359,0.248,0.52c0.096,0.164,0.215,0.32,0.361,0.473c0.096,0.09,0.189,0.178,0.281,0.26
	c0.098,0.082,0.193,0.156,0.291,0.221c0.102,0.07,0.201,0.131,0.313,0.188c0.105,0.051,0.215,0.094,0.326,0.121l0.039,0.008
	c0.182-0.16,0.352-0.32,0.51-0.484c0.16-0.166,0.322-0.334,0.486-0.504c0.162-0.168,0.326-0.338,0.484-0.502s0.316-0.324,0.484-0.49
	c0.004-0.008,0.018-0.012,0.031-0.018c0.012-0.004,0.025-0.008,0.039-0.018c0.014-0.008,0.027-0.012,0.045-0.012
	s0.029,0.004,0.039,0.012c0.066,0.188,0.158,0.361,0.268,0.525C37.929,51.547,38.056,51.703,38.202,51.846z M43.456,29.235
	c0.453,0.025,0.73,0.225,0.824,0.597c0.043,0.195-0.063,0.477-0.309,0.85c-0.234,0.291-0.467,0.469-0.701,0.533
	c-0.109-0.168-0.285-0.281-0.527-0.334c-0.238-0.057-0.494,0.039-0.768,0.287c-0.271,0.242-0.516,0.576-0.727,0.986
	c-0.432,0.755-0.889,1.244-1.369,1.47c-0.48,0.221-0.867,0.232-1.154,0.033c-0.291-0.199-0.428-0.445-0.418-0.74
	c0-0.285,0.123-0.576,0.369-0.863c0.252-0.289,0.414-0.432,0.494-0.432c0.025,0.186,0.092,0.338,0.197,0.449
	c0.111,0.117,0.273,0.174,0.498,0.174s0.467-0.104,0.723-0.313c0.26-0.207,0.498-0.48,0.717-0.826
	c0.217-0.344,0.477-0.732,0.768-1.176C42.522,29.47,42.979,29.235,43.456,29.235z M37.286,39.318h-0.053
	c-0.824,1.768-1.898,2.596-3.225,2.488c-0.088,0-0.172,0-0.26,0c-0.109,0.016-0.168,0.068-0.168,0.164
	c0.053,0.463,0.08,0.932,0.08,1.395c0,2.861-0.828,5.646-2.48,8.355c-0.705,1.145-1.559,2.059-2.568,2.756
	c-1.109,0.793-2.267,1.191-3.484,1.191c-0.229,0-0.449-0.018-0.656-0.051c-0.621-0.066-1.215-0.33-1.787-0.795
	c-0.572-0.459-0.982-0.982-1.234-1.568c-0.387-0.953-0.576-2.049-0.576-3.283c0-1.492,0.291-3.207,0.877-5.145
	c0.064-0.23,0.145-0.455,0.236-0.68c0.088-0.221,0.221-0.387,0.393-0.49c0.154,0,0.234,0.053,0.234,0.156
	c-0.189,0.729-0.393,1.828-0.609,3.297c-0.064,0.477-0.1,0.91-0.1,1.309c0,1.66,0.537,2.813,1.611,3.455
	c0.568,0.346,1.246,0.52,2.039,0.52c1.057,0,2.095-0.277,3.109-0.836c1.344-0.729,2.383-1.764,3.123-3.111
	c0.705-1.27,1.059-2.641,1.059-4.113c0-1.027-0.125-2.041-0.375-3.047c0.08-0.762,0.176-1.344,0.299-1.742
	c0.066-0.1,0.154-0.143,0.256-0.125c0.08,0.051,0.137,0.156,0.168,0.313c0.035,0.156,0.113,0.242,0.232,0.26
	c0.234,0.051,0.453,0.074,0.66,0.074c1.006,0,1.803-0.395,2.383-1.193c0.125-0.211,0.252-0.531,0.389-0.965
	c0.07-1.404,0.34-2.617,0.801-3.645c0.053-0.066,0.119-0.109,0.207-0.127c0.102,0,0.154,0.066,0.154,0.191
	c0,1.395,0.371,2.254,1.111,2.566c0.369,0.16,0.703,0.242,1.008,0.242c0.281,0,0.523-0.074,0.723-0.217
	c0.172-0.256,0.467-0.572,0.889-0.953c0.084,0,0.15,0.043,0.195,0.125c-0.063,0.551-0.396,1.33-1.01,2.336
	c-0.586,0.697-0.93,1.092-1.031,1.195c-0.439,0.398-0.889,0.59-1.355,0.572C38.007,40.158,37.585,39.865,37.286,39.318z"/>
<path fill="#180D0B" stroke="#FFFFFF" stroke-width="2.0001" stroke-linecap="round" stroke-linejoin="round" stroke-miterlimit="2.6131" d="
	M211.575,30.963l0.063-0.012l0.014,0.012c0.053,0.287-0.115,0.824-0.502,1.613c-0.045,0.082-0.08,0.164-0.111,0.246
	s-0.057,0.156-0.084,0.221c-0.043,0.121-0.074,0.27-0.096,0.447c-0.023,0.178-0.023,0.352-0.006,0.523
	c0.014,0.174,0.063,0.326,0.143,0.451c0.074,0.131,0.193,0.203,0.348,0.23c0,0,0.018-0.045,0.057-0.135
	c0.039-0.086,0.084-0.188,0.137-0.295c0.053-0.113,0.102-0.221,0.15-0.324c0.043-0.109,0.084-0.178,0.105-0.213
	c0.096,0.068,0.172,0.174,0.232,0.307c0.063,0.135,0.105,0.262,0.133,0.383v0.012c0.057,0.33-0.004,0.707-0.186,1.127
	c-0.193,0.326-0.428,0.512-0.695,0.559c-0.145,0.027-0.273,0.006-0.379-0.061c-0.109-0.068-0.203-0.156-0.287-0.268
	c-0.078-0.109-0.145-0.23-0.193-0.359c-0.043-0.135-0.084-0.256-0.105-0.365c-0.133-0.633,0.021-1.512,0.463-2.625
	c0.232-0.525,0.459-0.949,0.67-1.27L211.575,30.963z M210.178,38.057c-0.057,0.027-0.119,0.07-0.18,0.121
	c-0.057,0.057-0.123,0.109-0.186,0.162c-0.066,0.051-0.137,0.082-0.207,0.1c-0.074,0.016-0.148-0.006-0.225-0.063
	c-0.096-0.061-0.172-0.143-0.229-0.254c-0.053-0.109-0.092-0.24-0.115-0.383c-0.021-0.143-0.025-0.289-0.018-0.438
	c0.01-0.146,0.023-0.295,0.049-0.438c0.098-0.406,0.256-0.637,0.484-0.697s0.506,0.039,0.832,0.291
	c0.164,0.139,0.301,0.277,0.406,0.42c0.109,0.143,0.203,0.289,0.277,0.445c0.07,0.16,0.137,0.326,0.193,0.498
	c0.063,0.174,0.111,0.344,0.146,0.504c0.039-0.152,0.078-0.326,0.105-0.52c0.029-0.195,0.07-0.395,0.109-0.6
	c0.045-0.203,0.109-0.402,0.203-0.602c0.088-0.199,0.221-0.385,0.393-0.563c0.127-0.148,0.299-0.248,0.502-0.309
	c0.197-0.039,0.369-0.021,0.52,0.064c0.145,0.088,0.264,0.199,0.361,0.344c0.008,0.246-0.031,0.523-0.119,0.832
	c-0.084,0.307-0.176,0.605-0.27,0.896c-0.043-0.096-0.088-0.199-0.133-0.32c-0.039-0.117-0.123-0.199-0.242-0.238
	c-0.207-0.061-0.377-0.035-0.514,0.072c-0.141,0.113-0.248,0.234-0.326,0.369c-0.031,0.068-0.076,0.191-0.129,0.363
	c-0.053,0.174-0.105,0.383-0.166,0.621c-0.063,0.242-0.119,0.498-0.178,0.771c-0.053,0.268-0.105,0.527-0.152,0.77
	c-0.049,0.248-0.084,0.465-0.115,0.656c-0.031,0.189-0.049,0.328-0.057,0.412c-0.027-0.01-0.041-0.041-0.041-0.096
	c0-0.053-0.021-0.078-0.064-0.07c-0.02-0.064-0.037-0.135-0.049-0.195c-0.018-0.064-0.027-0.156-0.027-0.271
	c0-0.248-0.008-0.496-0.021-0.752c-0.014-0.254-0.045-0.498-0.098-0.73c-0.049-0.23-0.133-0.451-0.25-0.66
	C210.536,38.365,210.377,38.195,210.178,38.057z M216.905,37.59l0.049,0.178l-0.049,1.334l0.168,4.686c0,3.5-1.207,6.678-3.617,9.52
	c-1.313,1.465-2.793,2.197-4.436,2.197c-1.738,0-3.1-0.881-4.078-2.639c-0.439-1.02-0.635-1.994-0.582-2.934
	c0-2.008,0.621-4.607,1.859-7.797h0.074l0.053,0.039c0,0.234-0.369,1.734-1.109,4.494l-0.127,1.141c0,2.252,1.088,3.738,3.264,4.459
	c0.285,0.115,0.77,0.203,1.457,0.25c2.41,0,4.369-1.383,5.885-4.15c0.352-0.854,0.529-1.635,0.529-2.336
	c0-0.559-0.115-1.934-0.35-4.125l0.877-4.316H216.905z M208.735,29.222c-0.27,0.728-0.824,1.531-1.666,2.402
	c-0.586,0.48-1.439,1.078-2.566,1.789c-1.234,0.797-2.094,1.377-2.582,1.742c-0.215,0.195-0.488,0.533-0.828,1.014
	c-0.018,0.035-0.039,0.117-0.074,0.246c-0.035,0.131-0.098,0.639-0.182,1.518c0.018,0.906,0.027,1.572,0.027,2.006
	c0,2.779-0.488,4.963-1.459,6.553c-0.016,0.018-0.289,0.338-0.814,0.963c-0.092,0.484-0.201,0.904-0.32,1.27
	c-0.27,0.762-0.455,1.273-0.555,1.537c-0.27,0.559-0.578,0.988-0.93,1.297c-0.354,0.16-0.811,0.281-1.371,0.367
	c-0.488,0.082-0.973,0.164-1.457,0.238c-0.895,0.17-1.393,0.256-1.498,0.256c-0.109-0.035-0.148-0.146-0.113-0.342
	c0.514-0.365,1.271-0.779,2.271-1.244c0.635-0.328,1.266-0.662,1.881-0.992c0.709-0.445,1.035-1.018,0.982-1.711
	c-0.018-0.17-0.115-0.32-0.295-0.447c-0.775,0.195-1.383,0.078-1.818-0.355c-0.217-0.211-0.326-0.463-0.326-0.762
	c0-0.217,0.074-0.494,0.221-0.824c0.105-0.281,0.215-0.559,0.334-0.836c0.133-0.398,0.277-0.811,0.439-1.234
	c0.164-0.42,0.459-0.672,0.891-0.746c0.352,0,0.66,0.156,0.916,0.469c0.08,0.09,0.273,0.398,0.582,0.914
	c0.061,0.213,0.131,0.506,0.219,0.889c0.389-0.195,0.74-0.633,1.059-1.309c0.189-0.412,0.281-0.92,0.281-1.508
	c0,0.559-0.014,0.029-0.049-1.578c-0.053-2.029-0.008-3.359,0.129-3.986c0.461-1.404,1.17-2.496,2.113-3.273
	c0.551-0.449,1.463-1.049,2.727-1.792c1.158-0.693,2.035-1.301,2.615-1.824c0.234-0.22,0.578-0.533,1.035-0.927
	C208.672,28.962,208.735,29.036,208.735,29.222z M182.167,54.004l1.713-1.842l0.133,0.027c0.318,0.307,0.943,0.832,1.881,1.576
	l-0.025,0.213c-0.6,0.729-1.146,1.316-1.639,1.768c-0.119,0.031-0.438-0.092-0.951-0.367c-0.305-0.256-0.701-0.646-1.189-1.17
	L182.167,54.004z M180.155,50.338l0.061-0.203c0.684-0.875,1.252-1.568,1.719-2.084l0.127,0.025
	c0.459,0.365,1.137,0.875,2.039,1.539c0.018,0.012,0.045,0.057,0.08,0.125c0.316-0.313,0.787-0.875,1.418-1.689h0.141
	c0.459,0.381,1.15,0.9,2.08,1.564c0.035,0.117,0.012,0.238-0.066,0.359c-0.076,0.121-0.16,0.234-0.242,0.338
	c-0.287,0.381-0.754,0.9-1.41,1.561c-0.189,0-0.533-0.148-1.031-0.447c-0.207-0.168-0.426-0.346-0.664-0.537
	s-0.42-0.398-0.551-0.629h-0.049c-0.523,0.711-0.973,1.23-1.344,1.561c-0.197,0.053-0.404,0.014-0.625-0.121
	c-0.221-0.131-0.445-0.273-0.67-0.43C180.938,51.113,180.6,50.803,180.155,50.338z M185.237,41.971
	c-0.127,0-0.387,0.064-0.775,0.203c-0.316,0.26-0.775,0.781-1.365,1.561c-0.533,0.693-1.021,1.184-1.457,1.461
	c0.281,0,0.902-0.084,1.854-0.244c1.404-0.516,2.229-1.252,2.48-2.205C185.92,42.227,185.678,41.971,185.237,41.971z
	 M182.903,41.729c-0.123-0.188-0.316-0.334-0.582-0.443c-0.088-0.016-0.162-0.025-0.232-0.025c-0.336,0-0.662,0.209-0.982,0.629
	c-0.318,0.416-0.613,0.943-0.891,1.582c-0.215,0.541-0.436,1.092-0.668,1.646c0.955-0.227,1.756-0.689,2.412-1.383
	c0.225-0.248,0.455-0.502,0.697-0.768c0.24-0.268,0.359-0.533,0.359-0.793C183.016,42.021,182.977,41.871,182.903,41.729z
	 M184.012,40.879c0.635-1.059,1.498-1.924,2.59-2.605c0.27-0.16,1.334-0.68,3.203-1.559c0.117-0.088,0.264-0.217,0.426-0.395
	c-0.035-0.053-0.326-0.17-0.877-0.355c-0.105-0.018-0.439-0.057-1.008-0.113c-0.439-0.035-0.793-0.053-1.057-0.053
	c-1.18,0-1.979,0.355-2.4,1.066c-0.189,0.195-0.322,0.27-0.4,0.217c-0.035-0.018-0.07-0.064-0.102-0.139
	c-0.018-0.086-0.01-0.143,0.021-0.178c0.551-1.092,1.217-1.82,1.99-2.184c0.609-0.17,1.33-0.256,2.168-0.256
	c0.705,0,1.436,0.061,2.193,0.178l0.607,0.203c0.154,0.053,0.246,0.148,0.283,0.291c0.078,0.203,0.016,0.445-0.182,0.723
	c-0.281,0.434-0.428,0.66-0.428,0.678c-0.523,0.783-1.172,1.395-1.947,1.828c-0.018,0.012-0.814,0.377-2.387,1.092
	c-0.611,0.377-1.127,0.828-1.549,1.344c0.699-0.053,1.047-0.074,1.047-0.074c0.463,0.16,0.75,0.365,0.85,0.615
	c0.102,0.248,0.154,0.486,0.154,0.715c0,0.398-0.285,1.07-0.863,2.02c-1.162,1.457-2.58,2.184-4.258,2.184h-1.768
	c-0.422,0.295-1.471,0.715-3.148,1.258c-0.523,1.572-1.291,2.951-2.299,4.125c-0.986,0.381-2.326,0.668-4.012,0.863
	c0-0.018-0.045-0.039-0.137-0.061c-0.09-0.027-0.133-0.057-0.133-0.092c0-0.018,0.018-0.049,0.049-0.086l0.299-0.283
	c1.057-0.541,2.617-1.426,4.668-2.652c0.34-0.246,0.463-0.627,0.375-1.143c-0.084-0.242-0.186-0.404-0.295-0.469
	c-0.705,0.1-1.303-0.064-1.793-0.494c-0.25-0.334-0.326-0.654-0.232-0.967c0.07-0.289,0.242-0.701,0.523-1.238
	c0.277-0.537,0.459-0.953,0.533-1.248c0.295-0.477,0.572-0.736,0.842-0.789c0.568-0.1,0.994,0.135,1.289,0.711
	c0.283,0.381,0.441,1.027,0.477,1.941c0.127,0,0.316-0.014,0.559-0.035c0.248-0.025,0.432-0.039,0.551-0.039l0.08-0.025
	c0.428-0.711,0.752-1.447,0.977-2.211c0.305-0.609,0.604-1.213,0.904-1.814c0.387-0.693,0.854-1.197,1.396-1.508
	c0.633-0.195,1.17-0.166,1.611,0.098C183.602,40.08,183.805,40.389,184.012,40.879z M166.911,33.693
	c0.691,0.906,1.035,1.988,1.035,3.25c0,0.988-0.494,2.609-1.484,4.863c-0.154,0.346-0.129,0.709,0.078,1.092
	c0.182,0.195,0.498,0.346,0.951,0.463c0.459,0.113,0.768,0.256,0.93,0.426c0.494,0.48,0.736,1.164,0.736,2.053
	c0,0.486-0.098,1.17-0.295,2.059c-0.371,1.678-1.053,3.182-2.053,4.52c-1.127,1.49-2.475,2.496-4.053,3.021
	c-0.404,0.086-0.805,0.129-1.211,0.129c-1.074,0-1.91-0.316-2.506-0.939c-1.057-1.092-1.586-2.627-1.586-4.598
	c0-1.166,0.186-2.471,0.555-3.91c0.459-1.711,0.947-3.197,1.473-4.467c0.127-0.121,0.246-0.148,0.348-0.078
	c0.053,0.195,0.061,0.324,0.025,0.395c-0.488,1.75-0.752,2.713-0.787,2.881c-0.283,1.158-0.424,2.176-0.424,3.047
	c0,1.074,0.199,2.045,0.604,2.908c0.477,1.006,1.393,1.543,2.748,1.611c1.299,0.07,2.594-0.363,3.885-1.295
	c1.074-0.789,1.824-1.768,2.246-2.947c0.137-0.623,0.111-1.01-0.084-1.152c-0.193-0.143-0.621-0.313-1.285-0.508
	c-0.533-0.168-0.902-0.42-1.109-0.75c-0.301-0.477-0.396-1.299-0.295-2.473c0.053-0.486,0.271-1.262,0.656-2.34
	c0.369-1.006,0.555-1.787,0.555-2.338c0-0.506-0.102-0.975-0.309-1.408c-0.035-0.082-0.414-0.58-1.137-1.486
	c-0.018-0.15,0.027-0.35,0.133-0.594c0.137-0.328,0.211-0.52,0.229-0.57c0.098-0.152,0.334-0.682,0.723-1.586
	C166.461,33.07,166.7,33.313,166.911,33.693z M166.381,29.2l-0.127-0.078c-0.092-0.016-0.186-0.025-0.27-0.025
	c-0.338,0-0.656,0.16-0.965,0.486c-0.303,0.32-0.59,0.636-0.857,0.947c0.74-0.125,1.162-0.207,1.268-0.236
	c0.471-0.141,0.814-0.369,1.031-0.703C166.514,29.396,166.487,29.267,166.381,29.2z M164.924,25.822l0.748-0.936
	c0.088,0,0.146,0.004,0.182,0.021c-0.084,0.332-0.178,0.975-0.27,1.932c-0.07,0.828-0.197,1.443-0.387,1.837
	c0.625-0.412,1.092-0.619,1.391-0.619c0.389,0,0.691,0.189,0.902,0.57c0.018,0.102,0.027,0.201,0.027,0.291
	c0,0.381-0.176,0.754-0.529,1.119c-0.316,0.268-0.643,0.553-0.98,0.848c-0.256,0.145-0.617,0.227-1.084,0.244
	c-0.758,0-1.133,0-1.133,0c-0.053,0-0.256,0.025-0.607,0.072c-0.25,0.053-0.445,0.045-0.582-0.021
	c-0.07-0.051-0.078-0.125-0.025-0.217c0.119-0.133,0.348-0.256,0.682-0.355c0.873-0.957,1.305-1.718,1.305-2.287
	c0.07-0.225,0.123-0.654,0.154-1.279C164.717,26.494,164.788,26.085,164.924,25.822z M152.485,32.043h0.027
	c0.027,0,0.039,0.078,0.039,0.238c0.516,0.849,1.158,1.382,1.922,1.603c0.096,0.018,0.145,0.033,0.145,0.061
	c0,0.129-0.529,0.729-1.576,1.803c-0.164,0.15-0.318,0.229-0.463,0.229c-0.477,0-1.008-0.346-1.604-1.039
	c-0.154-0.264-0.229-0.49-0.229-0.676v-0.061c0-0.23,0.154-0.49,0.463-0.789L152.485,32.043z M155.301,36.346
	c0.154,0.152,0.324,0.291,0.51,0.412c0.186,0.125,0.375,0.221,0.572,0.299c0.035,0.018,0.07,0.025,0.102,0.029
	c0.035,0.006,0.07,0.014,0.105,0.021c0.035,0.01,0.066,0.021,0.098,0.039s0.057,0.035,0.084,0.061c0,0.027-0.01,0.053-0.023,0.084
	c-0.008,0.029-0.025,0.055-0.043,0.082c-0.018,0.025-0.035,0.051-0.057,0.078c-0.023,0.025-0.041,0.047-0.059,0.061
	c-0.078,0.086-0.158,0.172-0.238,0.264c-0.082,0.086-0.166,0.174-0.254,0.26c-0.084,0.082-0.172,0.17-0.256,0.26
	c-0.088,0.088-0.172,0.17-0.26,0.248c-0.049,0.051-0.105,0.107-0.158,0.168c-0.059,0.066-0.115,0.131-0.178,0.191
	c-0.061,0.064-0.117,0.125-0.18,0.186c-0.061,0.057-0.115,0.105-0.168,0.139c-0.025,0.027-0.057,0.043-0.096,0.053
	c-0.039,0.008-0.08,0.018-0.123,0.025c-0.094-0.018-0.189-0.043-0.291-0.078c-0.098-0.033-0.193-0.078-0.291-0.125
	c-0.092-0.053-0.186-0.104-0.27-0.16c-0.088-0.057-0.166-0.113-0.246-0.17c-0.109-0.078-0.207-0.16-0.291-0.242
	c-0.078-0.086-0.158-0.174-0.229-0.268c-0.074-0.092-0.145-0.188-0.207-0.287c-0.066-0.096-0.127-0.189-0.189-0.281
	c0,0-0.014,0.008-0.039,0.029c-0.023,0.021-0.053,0.049-0.084,0.084c-0.027,0.033-0.066,0.072-0.109,0.111
	c-0.041,0.045-0.08,0.082-0.115,0.117c-0.035,0.031-0.066,0.066-0.098,0.096c-0.031,0.025-0.049,0.053-0.057,0.068
	c-0.119,0.109-0.242,0.223-0.361,0.344c-0.119,0.117-0.242,0.229-0.369,0.328c-0.125,0.1-0.256,0.195-0.393,0.287
	c-0.137,0.086-0.281,0.16-0.439,0.221c-0.102,0.025-0.199,0.029-0.297,0.014c-0.092-0.018-0.184-0.045-0.277-0.082
	c-0.088-0.041-0.18-0.088-0.268-0.148c-0.094-0.057-0.178-0.113-0.256-0.164c-0.066-0.057-0.137-0.121-0.211-0.182
	c-0.076-0.066-0.146-0.135-0.221-0.213c-0.07-0.074-0.137-0.152-0.199-0.234c-0.061-0.078-0.113-0.164-0.152-0.252
	c-0.045-0.09-0.08-0.182-0.107-0.271c-0.025-0.096-0.035-0.191-0.025-0.295c0.018-0.057,0.049-0.117,0.084-0.178
	c0.039-0.057,0.088-0.113,0.137-0.156c0.053-0.049,0.105-0.096,0.162-0.148c0.057-0.051,0.105-0.094,0.15-0.139
	c0.127-0.104,0.25-0.211,0.369-0.324c0.123-0.113,0.242-0.229,0.357-0.352c0.113-0.117,0.238-0.234,0.361-0.346
	c0.123-0.113,0.246-0.217,0.369-0.313c0.01,0,0.014,0,0.018-0.004c0.006-0.004,0.01-0.01,0.018-0.01c0.01,0,0.018,0,0.023-0.004
	c0.004-0.004,0.012-0.004,0.029,0.004c0.07,0.188,0.15,0.361,0.248,0.521c0.092,0.16,0.215,0.32,0.361,0.473
	c0.092,0.09,0.188,0.176,0.281,0.26c0.096,0.078,0.193,0.15,0.291,0.221c0.1,0.068,0.201,0.129,0.307,0.186
	c0.111,0.053,0.221,0.096,0.33,0.117l0.041,0.014c0.18-0.16,0.352-0.32,0.51-0.486c0.16-0.168,0.318-0.334,0.486-0.502
	c0.162-0.17,0.32-0.338,0.479-0.502c0.164-0.166,0.322-0.33,0.484-0.49c0.01-0.01,0.023-0.014,0.035-0.018
	c0.014-0.004,0.023-0.014,0.035-0.021c0.014-0.004,0.031-0.01,0.049-0.01s0.027,0.006,0.035,0.01
	c0.07,0.186,0.164,0.363,0.273,0.529C155.024,36.047,155.155,36.203,155.301,36.346z M145.016,41.971
	c-0.172-0.398-0.475-0.711-0.902-0.939c-0.432-0.23-0.877-0.316-1.343-0.27c-0.775,0.096-1.34,0.398-1.691,0.914
	c-0.049,0.906,0.375,1.596,1.277,2.059c0.594,0.186,1.132,0.152,1.617-0.1C144.743,43.023,145.09,42.469,145.016,41.971z
	 M140.048,42.543V36.74c0-0.676,0-1.365,0-2.059c0-0.828,0.141-1.479,0.428-1.941c0.102-0.345,0.305-0.818,0.604-1.408
	c0.18,0,0.256,0.053,0.221,0.152c-0.199,2.031-0.295,4.259-0.295,6.689c0.047,0.035,0.074,0.053,0.074,0.053
	c0.352-0.906,0.982-1.834,1.885-2.783c0.335-0.363,1.181-1.174,2.529-2.426c0.92-0.792,1.826-1.589,2.721-2.382
	c1.08-0.992,1.898-1.902,2.467-2.73c0.189-0.143,0.281-0.078,0.281,0.203c-0.154,0.729-0.563,1.604-1.236,2.626
	c-0.842,0.957-1.969,2.031-3.379,3.222c-1.215,1.01-2.422,2.012-3.628,3.012c-0.154,0.16-0.305,0.326-0.459,0.5
	c-0.148,0.172-0.25,0.354-0.299,0.541c0.523-0.104,0.969-0.152,1.339-0.152c1.145,0,1.969,0.387,2.465,1.166
	c0.238,0.398,0.361,0.885,0.361,1.461c0,0.611-0.137,1.33-0.414,2.158c-0.18,0.551-0.348,1.096-0.502,1.637
	c-0.215,0.646-0.457,1.166-0.723,1.561c0.182-0.029,0.684-0.199,1.512-0.494c1.32-0.48,2.439-1.234,3.352-2.258
	c0.18-0.146,0.357-0.217,0.529-0.217c0.18,0,0.436,0.092,0.762,0.273s0.576,0.273,0.748,0.273c0.199,0,0.383-0.078,0.555-0.23
	c0.234-0.328,0.613-0.805,1.137-1.434c0.137,0,0.207,0,0.207,0c0.162,0.053,0.193,0.174,0.088,0.369
	c0,0.016-0.008,0.039-0.025,0.064c-0.014,0.025-0.023,0.053-0.023,0.086c0.137,0.23,0.322,0.352,0.555,0.369
	c0.455,0.035,0.842-0.174,1.16-0.621c0.205-0.414,0.426-0.822,0.66-1.221l0.127-0.139c0.199,0.068,0.277,0.156,0.246,0.268
	c-0.025,0.152-0.064,0.369-0.117,0.646c-0.723,1.686-1.6,2.496-2.631,2.436c-0.18,0-0.457-0.125-0.828-0.377
	c-0.281,0.295-0.568,0.584-0.85,0.875c-0.344,0.313-0.713,0.441-1.109,0.395c-0.105-0.018-0.301-0.096-0.586-0.238
	c-0.291-0.139-0.533-0.191-0.73-0.156c-1.697,1.305-3.176,2.016-4.439,2.133c-0.248-0.018-0.617,0.004-1.111,0.068
	c-0.488,0.064-0.841,0.096-1.056,0.096c-0.758,0-1.313-0.256-1.664-0.762c-0.09-0.188-0.238-0.451-0.455-0.799
	c-0.047,0.135-0.172,0.344-0.361,0.621c-0.531,0.797-1.359,1.416-2.488,1.867l-0.053,0.086c-0.488,1.746-1.061,3.047-1.712,3.9
	c-0.287,0.221-0.842,0.385-1.664,0.494c-0.639,0.117-1.627,0.246-2.968,0.381c-0.119-0.117-0.137-0.221-0.053-0.303l0.271-0.242
	c0.929-0.451,2.3-1.123,4.115-2.02c0.604-0.473,0.902-0.838,0.902-1.092c0-0.408-0.123-0.703-0.375-0.889
	c-0.137,0.033-0.277,0.051-0.422,0.051c-0.512,0-0.938-0.164-1.291-0.494c-0.189-0.246-0.285-0.516-0.285-0.801
	c0-0.277,0.088-0.623,0.26-1.041c0.232-0.609,0.355-0.947,0.373-1.018c0.301-1.057,0.74-1.586,1.316-1.586
	c0.353,0,0.644,0.156,0.876,0.473c0.455,0.498,0.719,1.262,0.789,2.283c0.807,0.053,1.435-0.264,1.88-0.939
	c0.369-0.568,0.545-0.963,0.527-1.191L140.048,42.543z M125.498,30.963l0.062-0.012l0.014,0.012
	c0.053,0.287-0.115,0.824-0.501,1.613c-0.045,0.082-0.08,0.164-0.111,0.246s-0.057,0.156-0.084,0.221
	c-0.043,0.121-0.074,0.27-0.096,0.447c-0.023,0.178-0.023,0.352-0.006,0.523c0.014,0.174,0.063,0.326,0.143,0.451
	c0.074,0.131,0.193,0.203,0.348,0.23c0,0,0.018-0.045,0.057-0.135c0.039-0.086,0.084-0.188,0.137-0.295
	c0.053-0.113,0.101-0.221,0.15-0.324c0.043-0.109,0.084-0.178,0.105-0.213c0.096,0.068,0.172,0.174,0.232,0.307
	c0.063,0.135,0.105,0.262,0.133,0.383v0.012c0.057,0.33-0.004,0.707-0.186,1.127c-0.193,0.326-0.425,0.512-0.695,0.559
	c-0.145,0.027-0.273,0.006-0.379-0.061c-0.109-0.068-0.203-0.156-0.287-0.268c-0.078-0.109-0.145-0.23-0.193-0.359
	c-0.043-0.135-0.084-0.256-0.105-0.365c-0.133-0.633,0.021-1.512,0.463-2.625c0.232-0.525,0.457-0.949,0.67-1.27L125.498,30.963z
	 M124.101,38.057c-0.057,0.027-0.119,0.07-0.18,0.121c-0.057,0.057-0.123,0.109-0.186,0.162c-0.066,0.051-0.137,0.082-0.207,0.1
	c-0.074,0.016-0.148-0.006-0.225-0.063c-0.096-0.061-0.172-0.143-0.229-0.254c-0.053-0.109-0.092-0.24-0.115-0.383
	c-0.021-0.143-0.025-0.289-0.018-0.438c0.01-0.146,0.023-0.295,0.049-0.438c0.098-0.406,0.256-0.637,0.484-0.697
	s0.506,0.039,0.832,0.291c0.164,0.139,0.301,0.277,0.406,0.42c0.109,0.143,0.203,0.289,0.277,0.445
	c0.07,0.16,0.137,0.326,0.193,0.498c0.063,0.174,0.111,0.344,0.146,0.504c0.039-0.152,0.078-0.326,0.105-0.52
	c0.031-0.195,0.07-0.395,0.109-0.6c0.045-0.203,0.111-0.402,0.203-0.602c0.088-0.199,0.221-0.385,0.393-0.563
	c0.127-0.148,0.299-0.248,0.502-0.309c0.197-0.039,0.369-0.021,0.52,0.064c0.145,0.088,0.264,0.199,0.361,0.344
	c0.008,0.246-0.031,0.523-0.119,0.832c-0.084,0.307-0.176,0.605-0.268,0.896c-0.045-0.096-0.09-0.199-0.133-0.32
	c-0.041-0.117-0.125-0.199-0.244-0.238c-0.205-0.061-0.377-0.035-0.514,0.072c-0.141,0.113-0.248,0.234-0.326,0.369
	c-0.031,0.068-0.076,0.191-0.129,0.363c-0.053,0.174-0.105,0.383-0.166,0.621c-0.063,0.242-0.119,0.498-0.175,0.771
	c-0.055,0.268-0.107,0.527-0.154,0.77c-0.049,0.248-0.084,0.465-0.115,0.656c-0.031,0.189-0.049,0.328-0.057,0.412
	c-0.027-0.01-0.041-0.041-0.041-0.096c0-0.053-0.021-0.078-0.064-0.07c-0.02-0.064-0.037-0.135-0.049-0.195
	c-0.018-0.064-0.027-0.156-0.027-0.271c0-0.248-0.008-0.496-0.021-0.752c-0.014-0.254-0.045-0.498-0.098-0.73
	c-0.049-0.23-0.131-0.451-0.25-0.66C124.458,38.365,124.3,38.195,124.101,38.057z M130.827,37.59l0.049,0.178l-0.049,1.334
	l0.168,4.686c0,3.5-1.207,6.678-3.617,9.52c-1.313,1.465-2.792,2.197-4.435,2.197c-1.737,0-3.099-0.881-4.077-2.639
	c-0.439-1.02-0.635-1.994-0.58-2.934c0-2.008,0.619-4.607,1.857-7.797h0.076l0.053,0.039c0,0.234-0.371,1.734-1.111,4.494
	l-0.127,1.141c0,2.252,1.088,3.738,3.263,4.459c0.285,0.115,0.769,0.203,1.457,0.25c2.41,0,4.371-1.383,5.884-4.15
	c0.354-0.854,0.529-1.635,0.529-2.336c0-0.559-0.115-1.934-0.348-4.125l0.877-4.316H130.827z"/>
<path fill="#180D0B" stroke="#0D0C0C" stroke-miterlimit="10" d="M211.575,30.963l0.063-0.012l0.014,0.012
	c0.053,0.287-0.115,0.824-0.502,1.613c-0.045,0.082-0.08,0.164-0.111,0.246s-0.057,0.156-0.084,0.221
	c-0.043,0.121-0.074,0.27-0.096,0.447c-0.023,0.178-0.023,0.352-0.006,0.523c0.014,0.174,0.063,0.326,0.143,0.451
	c0.074,0.131,0.193,0.203,0.348,0.23c0,0,0.018-0.045,0.057-0.135c0.039-0.086,0.084-0.188,0.137-0.295
	c0.053-0.113,0.102-0.221,0.15-0.324c0.043-0.109,0.084-0.178,0.105-0.213c0.096,0.068,0.172,0.174,0.232,0.307
	c0.063,0.135,0.105,0.262,0.133,0.383v0.012c0.057,0.33-0.004,0.707-0.186,1.127c-0.193,0.326-0.428,0.512-0.695,0.559
	c-0.145,0.027-0.273,0.006-0.379-0.061c-0.109-0.068-0.203-0.156-0.287-0.268c-0.078-0.109-0.145-0.23-0.193-0.359
	c-0.043-0.135-0.084-0.256-0.105-0.365c-0.133-0.633,0.021-1.512,0.463-2.625c0.232-0.525,0.459-0.949,0.67-1.27L211.575,30.963z
	 M210.178,38.057c-0.057,0.027-0.119,0.07-0.18,0.121c-0.057,0.057-0.123,0.109-0.186,0.162c-0.066,0.051-0.137,0.082-0.207,0.1
	c-0.074,0.016-0.148-0.006-0.225-0.063c-0.096-0.061-0.172-0.143-0.229-0.254c-0.053-0.109-0.092-0.24-0.115-0.383
	c-0.021-0.143-0.025-0.289-0.018-0.438c0.01-0.146,0.023-0.295,0.049-0.438c0.098-0.406,0.256-0.637,0.484-0.697
	s0.506,0.039,0.832,0.291c0.164,0.139,0.301,0.277,0.406,0.42c0.109,0.143,0.203,0.289,0.277,0.445
	c0.07,0.16,0.137,0.326,0.193,0.498c0.063,0.174,0.111,0.344,0.146,0.504c0.039-0.152,0.078-0.326,0.105-0.52
	c0.029-0.195,0.07-0.395,0.109-0.6c0.045-0.203,0.109-0.402,0.203-0.602c0.088-0.199,0.221-0.385,0.393-0.563
	c0.127-0.148,0.299-0.248,0.502-0.309c0.197-0.039,0.369-0.021,0.52,0.064c0.145,0.088,0.264,0.199,0.361,0.344
	c0.008,0.246-0.031,0.523-0.119,0.832c-0.084,0.307-0.176,0.605-0.27,0.896c-0.043-0.096-0.088-0.199-0.133-0.32
	c-0.039-0.117-0.123-0.199-0.242-0.238c-0.207-0.061-0.377-0.035-0.514,0.072c-0.141,0.113-0.248,0.234-0.326,0.369
	c-0.031,0.068-0.076,0.191-0.129,0.363c-0.053,0.174-0.105,0.383-0.166,0.621c-0.063,0.242-0.119,0.498-0.178,0.771
	c-0.053,0.268-0.105,0.527-0.152,0.77c-0.049,0.248-0.084,0.465-0.115,0.656c-0.031,0.189-0.049,0.328-0.057,0.412
	c-0.027-0.01-0.041-0.041-0.041-0.096c0-0.053-0.021-0.078-0.064-0.07c-0.02-0.064-0.037-0.135-0.049-0.195
	c-0.018-0.064-0.027-0.156-0.027-0.271c0-0.248-0.008-0.496-0.021-0.752c-0.014-0.254-0.045-0.498-0.098-0.73
	c-0.049-0.23-0.133-0.451-0.25-0.66C210.536,38.365,210.377,38.195,210.178,38.057z M216.905,37.59l0.049,0.178l-0.049,1.334
	l0.168,4.686c0,3.5-1.207,6.678-3.617,9.52c-1.313,1.465-2.793,2.197-4.436,2.197c-1.738,0-3.1-0.881-4.078-2.639
	c-0.439-1.02-0.635-1.994-0.582-2.934c0-2.008,0.621-4.607,1.859-7.797h0.074l0.053,0.039c0,0.234-0.369,1.734-1.109,4.494
	l-0.127,1.141c0,2.252,1.088,3.738,3.264,4.459c0.285,0.115,0.77,0.203,1.457,0.25c2.41,0,4.369-1.383,5.885-4.15
	c0.352-0.854,0.529-1.635,0.529-2.336c0-0.559-0.115-1.934-0.35-4.125l0.877-4.316H216.905z M208.735,29.222
	c-0.27,0.728-0.824,1.531-1.666,2.402c-0.586,0.48-1.439,1.078-2.566,1.789c-1.234,0.797-2.094,1.377-2.582,1.742
	c-0.215,0.195-0.488,0.533-0.828,1.014c-0.018,0.035-0.039,0.117-0.074,0.246c-0.035,0.131-0.098,0.639-0.182,1.518
	c0.018,0.906,0.027,1.572,0.027,2.006c0,2.779-0.488,4.963-1.459,6.553c-0.016,0.018-0.289,0.338-0.814,0.963
	c-0.092,0.484-0.201,0.904-0.32,1.27c-0.27,0.762-0.455,1.273-0.555,1.537c-0.27,0.559-0.578,0.988-0.93,1.297
	c-0.354,0.16-0.811,0.281-1.371,0.367c-0.488,0.082-0.973,0.164-1.457,0.238c-0.895,0.17-1.393,0.256-1.498,0.256
	c-0.109-0.035-0.148-0.146-0.113-0.342c0.514-0.365,1.271-0.779,2.271-1.244c0.635-0.328,1.266-0.662,1.881-0.992
	c0.709-0.445,1.035-1.018,0.982-1.711c-0.018-0.17-0.115-0.32-0.295-0.447c-0.775,0.195-1.383,0.078-1.818-0.355
	c-0.217-0.211-0.326-0.463-0.326-0.762c0-0.217,0.074-0.494,0.221-0.824c0.105-0.281,0.215-0.559,0.334-0.836
	c0.133-0.398,0.277-0.811,0.439-1.234c0.164-0.42,0.459-0.672,0.891-0.746c0.352,0,0.66,0.156,0.916,0.469
	c0.08,0.09,0.273,0.398,0.582,0.914c0.061,0.213,0.131,0.506,0.219,0.889c0.389-0.195,0.74-0.633,1.059-1.309
	c0.189-0.412,0.281-0.92,0.281-1.508c0,0.559-0.014,0.029-0.049-1.578c-0.053-2.029-0.008-3.359,0.129-3.986
	c0.461-1.404,1.17-2.496,2.113-3.273c0.551-0.449,1.463-1.049,2.727-1.792c1.158-0.693,2.035-1.301,2.615-1.824
	c0.234-0.22,0.578-0.533,1.035-0.927C208.672,28.962,208.735,29.036,208.735,29.222z M182.167,54.004l1.713-1.842l0.133,0.027
	c0.318,0.307,0.943,0.832,1.881,1.576l-0.025,0.213c-0.6,0.729-1.146,1.316-1.639,1.768c-0.119,0.031-0.438-0.092-0.951-0.367
	c-0.305-0.256-0.701-0.646-1.189-1.17L182.167,54.004z M180.155,50.338l0.061-0.203c0.684-0.875,1.252-1.568,1.719-2.084
	l0.127,0.025c0.459,0.365,1.137,0.875,2.039,1.539c0.018,0.012,0.045,0.057,0.08,0.125c0.316-0.313,0.787-0.875,1.418-1.689h0.141
	c0.459,0.381,1.15,0.9,2.08,1.564c0.035,0.117,0.012,0.238-0.066,0.359c-0.076,0.121-0.16,0.234-0.242,0.338
	c-0.287,0.381-0.754,0.9-1.41,1.561c-0.189,0-0.533-0.148-1.031-0.447c-0.207-0.168-0.426-0.346-0.664-0.537
	s-0.42-0.398-0.551-0.629h-0.049c-0.523,0.711-0.973,1.23-1.344,1.561c-0.197,0.053-0.404,0.014-0.625-0.121
	c-0.221-0.131-0.445-0.273-0.67-0.43C180.938,51.113,180.6,50.803,180.155,50.338z M185.237,41.971
	c-0.127,0-0.387,0.064-0.775,0.203c-0.316,0.26-0.775,0.781-1.365,1.561c-0.533,0.693-1.021,1.184-1.457,1.461
	c0.281,0,0.902-0.084,1.854-0.244c1.404-0.516,2.229-1.252,2.48-2.205C185.92,42.227,185.678,41.971,185.237,41.971z
	 M182.903,41.729c-0.123-0.188-0.316-0.334-0.582-0.443c-0.088-0.016-0.162-0.025-0.232-0.025c-0.336,0-0.662,0.209-0.982,0.629
	c-0.318,0.416-0.613,0.943-0.891,1.582c-0.215,0.541-0.436,1.092-0.668,1.646c0.955-0.227,1.756-0.689,2.412-1.383
	c0.225-0.248,0.455-0.502,0.697-0.768c0.24-0.268,0.359-0.533,0.359-0.793C183.016,42.021,182.977,41.871,182.903,41.729z
	 M184.012,40.879c0.635-1.059,1.498-1.924,2.59-2.605c0.27-0.16,1.334-0.68,3.203-1.559c0.117-0.088,0.264-0.217,0.426-0.395
	c-0.035-0.053-0.326-0.17-0.877-0.355c-0.105-0.018-0.439-0.057-1.008-0.113c-0.439-0.035-0.793-0.053-1.057-0.053
	c-1.18,0-1.979,0.355-2.4,1.066c-0.189,0.195-0.322,0.27-0.4,0.217c-0.035-0.018-0.07-0.064-0.102-0.139
	c-0.018-0.086-0.01-0.143,0.021-0.178c0.551-1.092,1.217-1.82,1.99-2.184c0.609-0.17,1.33-0.256,2.168-0.256
	c0.705,0,1.436,0.061,2.193,0.178l0.607,0.203c0.154,0.053,0.246,0.148,0.283,0.291c0.078,0.203,0.016,0.445-0.182,0.723
	c-0.281,0.434-0.428,0.66-0.428,0.678c-0.523,0.783-1.172,1.395-1.947,1.828c-0.018,0.012-0.814,0.377-2.387,1.092
	c-0.611,0.377-1.127,0.828-1.549,1.344c0.699-0.053,1.047-0.074,1.047-0.074c0.463,0.16,0.75,0.365,0.85,0.615
	c0.102,0.248,0.154,0.486,0.154,0.715c0,0.398-0.285,1.07-0.863,2.02c-1.162,1.457-2.58,2.184-4.258,2.184h-1.768
	c-0.422,0.295-1.471,0.715-3.148,1.258c-0.523,1.572-1.291,2.951-2.299,4.125c-0.986,0.381-2.326,0.668-4.012,0.863
	c0-0.018-0.045-0.039-0.137-0.061c-0.09-0.027-0.133-0.057-0.133-0.092c0-0.018,0.018-0.049,0.049-0.086l0.299-0.283
	c1.057-0.541,2.617-1.426,4.668-2.652c0.34-0.246,0.463-0.627,0.375-1.143c-0.084-0.242-0.186-0.404-0.295-0.469
	c-0.705,0.1-1.303-0.064-1.793-0.494c-0.25-0.334-0.326-0.654-0.232-0.967c0.07-0.289,0.242-0.701,0.523-1.238
	c0.277-0.537,0.459-0.953,0.533-1.248c0.295-0.477,0.572-0.736,0.842-0.789c0.568-0.1,0.994,0.135,1.289,0.711
	c0.283,0.381,0.441,1.027,0.477,1.941c0.127,0,0.316-0.014,0.559-0.035c0.248-0.025,0.432-0.039,0.551-0.039l0.08-0.025
	c0.428-0.711,0.752-1.447,0.977-2.211c0.305-0.609,0.604-1.213,0.904-1.814c0.387-0.693,0.854-1.197,1.396-1.508
	c0.633-0.195,1.17-0.166,1.611,0.098C183.602,40.08,183.805,40.389,184.012,40.879z M166.911,33.693
	c0.691,0.906,1.035,1.988,1.035,3.25c0,0.988-0.494,2.609-1.484,4.863c-0.154,0.346-0.129,0.709,0.078,1.092
	c0.182,0.195,0.498,0.346,0.951,0.463c0.459,0.113,0.768,0.256,0.93,0.426c0.494,0.48,0.736,1.164,0.736,2.053
	c0,0.486-0.098,1.17-0.295,2.059c-0.371,1.678-1.053,3.182-2.053,4.52c-1.127,1.49-2.475,2.496-4.053,3.021
	c-0.404,0.086-0.805,0.129-1.211,0.129c-1.074,0-1.91-0.316-2.506-0.939c-1.057-1.092-1.586-2.627-1.586-4.598
	c0-1.166,0.186-2.471,0.555-3.91c0.459-1.711,0.947-3.197,1.473-4.467c0.127-0.121,0.246-0.148,0.348-0.078
	c0.053,0.195,0.061,0.324,0.025,0.395c-0.488,1.75-0.752,2.713-0.787,2.881c-0.283,1.158-0.424,2.176-0.424,3.047
	c0,1.074,0.199,2.045,0.604,2.908c0.477,1.006,1.393,1.543,2.748,1.611c1.299,0.07,2.594-0.363,3.885-1.295
	c1.074-0.789,1.824-1.768,2.246-2.947c0.137-0.623,0.111-1.01-0.084-1.152c-0.193-0.143-0.621-0.313-1.285-0.508
	c-0.533-0.168-0.902-0.42-1.109-0.75c-0.301-0.477-0.396-1.299-0.295-2.473c0.053-0.486,0.271-1.262,0.656-2.34
	c0.369-1.006,0.555-1.787,0.555-2.338c0-0.506-0.102-0.975-0.309-1.408c-0.035-0.082-0.414-0.58-1.137-1.486
	c-0.018-0.15,0.027-0.35,0.133-0.594c0.137-0.328,0.211-0.52,0.229-0.57c0.098-0.152,0.334-0.682,0.723-1.586
	C166.461,33.07,166.7,33.313,166.911,33.693z M166.381,29.2l-0.127-0.078c-0.092-0.016-0.186-0.025-0.27-0.025
	c-0.338,0-0.656,0.16-0.965,0.486c-0.303,0.32-0.59,0.636-0.857,0.947c0.74-0.125,1.162-0.207,1.268-0.236
	c0.471-0.141,0.814-0.369,1.031-0.703C166.514,29.396,166.487,29.267,166.381,29.2z M164.924,25.822l0.748-0.936
	c0.088,0,0.146,0.004,0.182,0.021c-0.084,0.332-0.178,0.975-0.27,1.932c-0.07,0.828-0.197,1.443-0.387,1.837
	c0.625-0.412,1.092-0.619,1.391-0.619c0.389,0,0.691,0.189,0.902,0.57c0.018,0.102,0.027,0.201,0.027,0.291
	c0,0.381-0.176,0.754-0.529,1.119c-0.316,0.268-0.643,0.553-0.98,0.848c-0.256,0.145-0.617,0.227-1.084,0.244
	c-0.758,0-1.133,0-1.133,0c-0.053,0-0.256,0.025-0.607,0.072c-0.25,0.053-0.445,0.045-0.582-0.021
	c-0.07-0.051-0.078-0.125-0.025-0.217c0.119-0.133,0.348-0.256,0.682-0.355c0.873-0.957,1.305-1.718,1.305-2.287
	c0.07-0.225,0.123-0.654,0.154-1.279C164.717,26.494,164.788,26.085,164.924,25.822z M152.485,32.043h0.027
	c0.027,0,0.039,0.078,0.039,0.238c0.516,0.849,1.158,1.382,1.922,1.603c0.096,0.018,0.145,0.033,0.145,0.061
	c0,0.129-0.529,0.729-1.576,1.803c-0.164,0.15-0.318,0.229-0.463,0.229c-0.477,0-1.008-0.346-1.604-1.039
	c-0.154-0.264-0.229-0.49-0.229-0.676v-0.061c0-0.23,0.154-0.49,0.463-0.789L152.485,32.043z M155.301,36.346
	c0.154,0.152,0.324,0.291,0.51,0.412c0.186,0.125,0.375,0.221,0.572,0.299c0.035,0.018,0.07,0.025,0.102,0.029
	c0.035,0.006,0.07,0.014,0.105,0.021c0.035,0.01,0.066,0.021,0.098,0.039s0.057,0.035,0.084,0.061c0,0.027-0.01,0.053-0.023,0.084
	c-0.008,0.029-0.025,0.055-0.043,0.082c-0.018,0.025-0.035,0.051-0.057,0.078c-0.023,0.025-0.041,0.047-0.059,0.061
	c-0.078,0.086-0.158,0.172-0.238,0.264c-0.082,0.086-0.166,0.174-0.254,0.26c-0.084,0.082-0.172,0.17-0.256,0.26
	c-0.088,0.088-0.172,0.17-0.26,0.248c-0.049,0.051-0.105,0.107-0.158,0.168c-0.059,0.066-0.115,0.131-0.178,0.191
	c-0.061,0.064-0.117,0.125-0.18,0.186c-0.061,0.057-0.115,0.105-0.168,0.139c-0.025,0.027-0.057,0.043-0.096,0.053
	c-0.039,0.008-0.08,0.018-0.123,0.025c-0.094-0.018-0.189-0.043-0.291-0.078c-0.098-0.033-0.193-0.078-0.291-0.125
	c-0.092-0.053-0.186-0.104-0.27-0.16c-0.088-0.057-0.166-0.113-0.246-0.17c-0.109-0.078-0.207-0.16-0.291-0.242
	c-0.078-0.086-0.158-0.174-0.229-0.268c-0.074-0.092-0.145-0.188-0.207-0.287c-0.066-0.096-0.127-0.189-0.189-0.281
	c0,0-0.014,0.008-0.039,0.029c-0.023,0.021-0.053,0.049-0.084,0.084c-0.027,0.033-0.066,0.072-0.109,0.111
	c-0.041,0.045-0.08,0.082-0.115,0.117c-0.035,0.031-0.066,0.066-0.098,0.096c-0.031,0.025-0.049,0.053-0.057,0.068
	c-0.119,0.109-0.242,0.223-0.361,0.344c-0.119,0.117-0.242,0.229-0.369,0.328c-0.125,0.1-0.256,0.195-0.393,0.287
	c-0.137,0.086-0.281,0.16-0.439,0.221c-0.102,0.025-0.199,0.029-0.297,0.014c-0.092-0.018-0.184-0.045-0.277-0.082
	c-0.088-0.041-0.18-0.088-0.268-0.148c-0.094-0.057-0.178-0.113-0.256-0.164c-0.066-0.057-0.137-0.121-0.211-0.182
	c-0.076-0.066-0.146-0.135-0.221-0.213c-0.07-0.074-0.137-0.152-0.199-0.234c-0.061-0.078-0.113-0.164-0.152-0.252
	c-0.045-0.09-0.08-0.182-0.107-0.271c-0.025-0.096-0.035-0.191-0.025-0.295c0.018-0.057,0.049-0.117,0.084-0.178
	c0.039-0.057,0.088-0.113,0.137-0.156c0.053-0.049,0.105-0.096,0.162-0.148c0.057-0.051,0.105-0.094,0.15-0.139
	c0.127-0.104,0.25-0.211,0.369-0.324c0.123-0.113,0.242-0.229,0.357-0.352c0.113-0.117,0.238-0.234,0.361-0.346
	c0.123-0.113,0.246-0.217,0.369-0.313c0.01,0,0.014,0,0.018-0.004c0.006-0.004,0.01-0.01,0.018-0.01c0.01,0,0.018,0,0.023-0.004
	c0.004-0.004,0.012-0.004,0.029,0.004c0.07,0.188,0.15,0.361,0.248,0.521c0.092,0.16,0.215,0.32,0.361,0.473
	c0.092,0.09,0.188,0.176,0.281,0.26c0.096,0.078,0.193,0.15,0.291,0.221c0.1,0.068,0.201,0.129,0.307,0.186
	c0.111,0.053,0.221,0.096,0.33,0.117l0.041,0.014c0.18-0.16,0.352-0.32,0.51-0.486c0.16-0.168,0.318-0.334,0.486-0.502
	c0.162-0.17,0.32-0.338,0.479-0.502c0.164-0.166,0.322-0.33,0.484-0.49c0.01-0.01,0.023-0.014,0.035-0.018
	c0.014-0.004,0.023-0.014,0.035-0.021c0.014-0.004,0.031-0.01,0.049-0.01s0.027,0.006,0.035,0.01
	c0.07,0.186,0.164,0.363,0.273,0.529C155.024,36.047,155.155,36.203,155.301,36.346z M145.016,41.971
	c-0.172-0.398-0.475-0.711-0.902-0.939c-0.432-0.23-0.877-0.316-1.343-0.27c-0.775,0.096-1.34,0.398-1.691,0.914
	c-0.049,0.906,0.375,1.596,1.277,2.059c0.594,0.186,1.132,0.152,1.617-0.1C144.743,43.023,145.09,42.469,145.016,41.971z
	 M140.048,42.543V36.74c0-0.676,0-1.365,0-2.059c0-0.828,0.141-1.479,0.428-1.941c0.102-0.345,0.305-0.818,0.604-1.408
	c0.18,0,0.256,0.053,0.221,0.152c-0.199,2.031-0.295,4.259-0.295,6.689c0.047,0.035,0.074,0.053,0.074,0.053
	c0.352-0.906,0.982-1.834,1.885-2.783c0.335-0.363,1.181-1.174,2.529-2.426c0.92-0.792,1.826-1.589,2.721-2.382
	c1.08-0.992,1.898-1.902,2.467-2.73c0.189-0.143,0.281-0.078,0.281,0.203c-0.154,0.729-0.563,1.604-1.236,2.626
	c-0.842,0.957-1.969,2.031-3.379,3.222c-1.215,1.01-2.422,2.012-3.628,3.012c-0.154,0.16-0.305,0.326-0.459,0.5
	c-0.148,0.172-0.25,0.354-0.299,0.541c0.523-0.104,0.969-0.152,1.339-0.152c1.145,0,1.969,0.387,2.465,1.166
	c0.238,0.398,0.361,0.885,0.361,1.461c0,0.611-0.137,1.33-0.414,2.158c-0.18,0.551-0.348,1.096-0.502,1.637
	c-0.215,0.646-0.457,1.166-0.723,1.561c0.182-0.029,0.684-0.199,1.512-0.494c1.32-0.48,2.439-1.234,3.352-2.258
	c0.18-0.146,0.357-0.217,0.529-0.217c0.18,0,0.436,0.092,0.762,0.273s0.576,0.273,0.748,0.273c0.199,0,0.383-0.078,0.555-0.23
	c0.234-0.328,0.613-0.805,1.137-1.434c0.137,0,0.207,0,0.207,0c0.162,0.053,0.193,0.174,0.088,0.369
	c0,0.016-0.008,0.039-0.025,0.064c-0.014,0.025-0.023,0.053-0.023,0.086c0.137,0.23,0.322,0.352,0.555,0.369
	c0.455,0.035,0.842-0.174,1.16-0.621c0.205-0.414,0.426-0.822,0.66-1.221l0.127-0.139c0.199,0.068,0.277,0.156,0.246,0.268
	c-0.025,0.152-0.064,0.369-0.117,0.646c-0.723,1.686-1.6,2.496-2.631,2.436c-0.18,0-0.457-0.125-0.828-0.377
	c-0.281,0.295-0.568,0.584-0.85,0.875c-0.344,0.313-0.713,0.441-1.109,0.395c-0.105-0.018-0.301-0.096-0.586-0.238
	c-0.291-0.139-0.533-0.191-0.73-0.156c-1.697,1.305-3.176,2.016-4.439,2.133c-0.248-0.018-0.617,0.004-1.111,0.068
	c-0.488,0.064-0.841,0.096-1.056,0.096c-0.758,0-1.313-0.256-1.664-0.762c-0.09-0.188-0.238-0.451-0.455-0.799
	c-0.047,0.135-0.172,0.344-0.361,0.621c-0.531,0.797-1.359,1.416-2.488,1.867l-0.053,0.086c-0.488,1.746-1.061,3.047-1.712,3.9
	c-0.287,0.221-0.842,0.385-1.664,0.494c-0.639,0.117-1.627,0.246-2.968,0.381c-0.119-0.117-0.137-0.221-0.053-0.303l0.271-0.242
	c0.929-0.451,2.3-1.123,4.115-2.02c0.604-0.473,0.902-0.838,0.902-1.092c0-0.408-0.123-0.703-0.375-0.889
	c-0.137,0.033-0.277,0.051-0.422,0.051c-0.512,0-0.938-0.164-1.291-0.494c-0.189-0.246-0.285-0.516-0.285-0.801
	c0-0.277,0.088-0.623,0.26-1.041c0.232-0.609,0.355-0.947,0.373-1.018c0.301-1.057,0.74-1.586,1.316-1.586
	c0.353,0,0.644,0.156,0.876,0.473c0.455,0.498,0.719,1.262,0.789,2.283c0.807,0.053,1.435-0.264,1.88-0.939
	c0.369-0.568,0.545-0.963,0.527-1.191L140.048,42.543z M125.498,30.963l0.062-0.012l0.014,0.012
	c0.053,0.287-0.115,0.824-0.501,1.613c-0.045,0.082-0.08,0.164-0.111,0.246s-0.057,0.156-0.084,0.221
	c-0.043,0.121-0.074,0.27-0.096,0.447c-0.023,0.178-0.023,0.352-0.006,0.523c0.014,0.174,0.063,0.326,0.143,0.451
	c0.074,0.131,0.193,0.203,0.348,0.23c0,0,0.018-0.045,0.057-0.135c0.039-0.086,0.084-0.188,0.137-0.295
	c0.053-0.113,0.101-0.221,0.15-0.324c0.043-0.109,0.084-0.178,0.105-0.213c0.096,0.068,0.172,0.174,0.232,0.307
	c0.063,0.135,0.105,0.262,0.133,0.383v0.012c0.057,0.33-0.004,0.707-0.186,1.127c-0.193,0.326-0.425,0.512-0.695,0.559
	c-0.145,0.027-0.273,0.006-0.379-0.061c-0.109-0.068-0.203-0.156-0.287-0.268c-0.078-0.109-0.145-0.23-0.193-0.359
	c-0.043-0.135-0.084-0.256-0.105-0.365c-0.133-0.633,0.021-1.512,0.463-2.625c0.232-0.525,0.457-0.949,0.67-1.27L125.498,30.963z
	 M124.101,38.057c-0.057,0.027-0.119,0.07-0.18,0.121c-0.057,0.057-0.123,0.109-0.186,0.162c-0.066,0.051-0.137,0.082-0.207,0.1
	c-0.074,0.016-0.148-0.006-0.225-0.063c-0.096-0.061-0.172-0.143-0.229-0.254c-0.053-0.109-0.092-0.24-0.115-0.383
	c-0.021-0.143-0.025-0.289-0.018-0.438c0.01-0.146,0.023-0.295,0.049-0.438c0.098-0.406,0.256-0.637,0.484-0.697
	s0.506,0.039,0.832,0.291c0.164,0.139,0.301,0.277,0.406,0.42c0.109,0.143,0.203,0.289,0.277,0.445
	c0.07,0.16,0.137,0.326,0.193,0.498c0.063,0.174,0.111,0.344,0.146,0.504c0.039-0.152,0.078-0.326,0.105-0.52
	c0.031-0.195,0.07-0.395,0.109-0.6c0.045-0.203,0.111-0.402,0.203-0.602c0.088-0.199,0.221-0.385,0.393-0.563
	c0.127-0.148,0.299-0.248,0.502-0.309c0.197-0.039,0.369-0.021,0.52,0.064c0.145,0.088,0.264,0.199,0.361,0.344
	c0.008,0.246-0.031,0.523-0.119,0.832c-0.084,0.307-0.176,0.605-0.268,0.896c-0.045-0.096-0.09-0.199-0.133-0.32
	c-0.041-0.117-0.125-0.199-0.244-0.238c-0.205-0.061-0.377-0.035-0.514,0.072c-0.141,0.113-0.248,0.234-0.326,0.369
	c-0.031,0.068-0.076,0.191-0.129,0.363c-0.053,0.174-0.105,0.383-0.166,0.621c-0.063,0.242-0.119,0.498-0.175,0.771
	c-0.055,0.268-0.107,0.527-0.154,0.77c-0.049,0.248-0.084,0.465-0.115,0.656c-0.031,0.189-0.049,0.328-0.057,0.412
	c-0.027-0.01-0.041-0.041-0.041-0.096c0-0.053-0.021-0.078-0.064-0.07c-0.02-0.064-0.037-0.135-0.049-0.195
	c-0.018-0.064-0.027-0.156-0.027-0.271c0-0.248-0.008-0.496-0.021-0.752c-0.014-0.254-0.045-0.498-0.098-0.73
	c-0.049-0.23-0.131-0.451-0.25-0.66C124.458,38.365,124.3,38.195,124.101,38.057z M130.827,37.59l0.049,0.178l-0.049,1.334
	l0.168,4.686c0,3.5-1.207,6.678-3.617,9.52c-1.313,1.465-2.792,2.197-4.435,2.197c-1.737,0-3.099-0.881-4.077-2.639
	c-0.439-1.02-0.635-1.994-0.58-2.934c0-2.008,0.619-4.607,1.857-7.797h0.076l0.053,0.039c0,0.234-0.371,1.734-1.111,4.494
	l-0.127,1.141c0,2.252,1.088,3.738,3.263,4.459c0.285,0.115,0.769,0.203,1.457,0.25c2.41,0,4.371-1.383,5.884-4.15
	c0.354-0.854,0.529-1.635,0.529-2.336c0-0.559-0.115-1.934-0.348-4.125l0.877-4.316H130.827z"/>
<path fill="#180D0B" stroke="#FFFFFF" stroke-width="2.0001" stroke-linecap="round" stroke-linejoin="round" stroke-miterlimit="2.6131" d="
	M230.434,42.629h0.027c0.025,0,0.039,0.082,0.039,0.242c0.516,0.846,1.158,1.379,1.926,1.6c0.092,0.018,0.141,0.039,0.141,0.064
	c0,0.127-0.525,0.729-1.578,1.803c-0.162,0.152-0.316,0.227-0.461,0.227c-0.473,0-1.01-0.348-1.6-1.041
	c-0.154-0.26-0.232-0.484-0.232-0.672v-0.064c0-0.225,0.154-0.49,0.461-0.783L230.434,42.629z M226.721,53.715h0.027
	c0.021,0,0.035,0.076,0.035,0.238c0.52,0.848,1.158,1.381,1.924,1.602c0.094,0.018,0.143,0.035,0.143,0.063
	c0,0.129-0.525,0.727-1.574,1.801c-0.162,0.152-0.32,0.23-0.467,0.23c-0.471,0-1.004-0.346-1.598-1.039
	c-0.154-0.266-0.234-0.49-0.234-0.672v-0.066c0-0.229,0.154-0.488,0.467-0.787L226.721,53.715z M229.532,51.404
	c0.158,0.152,0.326,0.285,0.512,0.412c0.184,0.121,0.379,0.221,0.576,0.299c0.031,0.018,0.066,0.025,0.102,0.029
	c0.035,0.006,0.07,0.01,0.102,0.018c0.035,0.01,0.07,0.021,0.096,0.039c0.031,0.018,0.063,0.039,0.084,0.066
	c0,0.025-0.004,0.051-0.018,0.082c-0.014,0.029-0.025,0.055-0.043,0.082c-0.018,0.025-0.041,0.051-0.059,0.074
	c-0.021,0.025-0.043,0.047-0.061,0.064c-0.074,0.086-0.154,0.174-0.238,0.26c-0.08,0.09-0.162,0.178-0.252,0.26
	c-0.082,0.086-0.17,0.174-0.26,0.26c-0.082,0.092-0.172,0.174-0.254,0.248c-0.053,0.051-0.105,0.107-0.164,0.172
	c-0.053,0.066-0.113,0.127-0.172,0.191c-0.061,0.064-0.123,0.125-0.18,0.182c-0.063,0.061-0.119,0.109-0.168,0.143
	c-0.025,0.021-0.061,0.039-0.096,0.049c-0.041,0.008-0.08,0.018-0.125,0.025c-0.096-0.018-0.193-0.043-0.289-0.074
	c-0.102-0.033-0.199-0.076-0.291-0.129c-0.098-0.049-0.186-0.104-0.273-0.156c-0.084-0.057-0.168-0.113-0.242-0.174
	c-0.115-0.074-0.211-0.156-0.291-0.242c-0.084-0.082-0.158-0.174-0.232-0.264c-0.076-0.092-0.143-0.188-0.207-0.287
	c-0.063-0.096-0.129-0.189-0.186-0.285c0,0-0.014,0.014-0.041,0.029c-0.025,0.021-0.053,0.053-0.082,0.088
	c-0.031,0.029-0.066,0.068-0.111,0.111c-0.043,0.045-0.082,0.078-0.113,0.113c-0.035,0.035-0.066,0.064-0.098,0.096
	c-0.031,0.029-0.053,0.051-0.057,0.068c-0.123,0.113-0.242,0.227-0.365,0.344c-0.119,0.121-0.242,0.229-0.367,0.332
	c-0.123,0.102-0.254,0.195-0.391,0.287c-0.143,0.086-0.287,0.16-0.441,0.221c-0.102,0.025-0.201,0.031-0.295,0.014
	c-0.098-0.018-0.189-0.049-0.277-0.082c-0.092-0.039-0.18-0.088-0.273-0.148c-0.088-0.061-0.172-0.113-0.25-0.164
	c-0.07-0.061-0.141-0.121-0.211-0.188c-0.076-0.061-0.15-0.129-0.221-0.207c-0.076-0.074-0.143-0.156-0.203-0.234
	c-0.057-0.082-0.109-0.164-0.154-0.256c-0.039-0.086-0.074-0.178-0.102-0.273c-0.025-0.09-0.035-0.189-0.025-0.289
	c0.018-0.061,0.043-0.117,0.082-0.178c0.041-0.061,0.084-0.113,0.137-0.16c0.049-0.043,0.107-0.096,0.158-0.143
	c0.059-0.053,0.107-0.102,0.15-0.145c0.129-0.1,0.256-0.207,0.375-0.32c0.119-0.117,0.238-0.234,0.357-0.352
	c0.113-0.117,0.232-0.232,0.359-0.346c0.125-0.117,0.248-0.221,0.367-0.313c0.008,0,0.018-0.004,0.021-0.008
	c0.004-0.006,0.008-0.006,0.018-0.006c0.008,0,0.014-0.004,0.018-0.008s0.018,0,0.035,0.008c0.066,0.188,0.15,0.361,0.242,0.521
	c0.098,0.16,0.217,0.316,0.361,0.467c0.098,0.096,0.189,0.184,0.287,0.26c0.092,0.084,0.189,0.156,0.289,0.227
	c0.098,0.064,0.203,0.125,0.309,0.182s0.217,0.096,0.33,0.121l0.041,0.014c0.18-0.16,0.348-0.326,0.506-0.49
	s0.322-0.334,0.484-0.502c0.164-0.17,0.326-0.334,0.484-0.498c0.158-0.166,0.322-0.33,0.484-0.49c0.01-0.01,0.018-0.018,0.031-0.018
	c0.014-0.004,0.027-0.014,0.039-0.021c0.014-0.008,0.027-0.014,0.045-0.014s0.031,0.006,0.039,0.014
	c0.07,0.186,0.158,0.363,0.273,0.529C229.258,51.105,229.387,51.258,229.532,51.404z M232.346,34.262
	c-0.053,0.316-0.229,0.662-0.527,1.043c-0.459,0.59-0.697,0.898-0.723,0.916c-0.242,0.26-0.934,0.666-2.08,1.217
	c-0.902,0.398-2.236,1.057-3.998,1.98c-0.242,0.195-0.574,0.523-0.996,0.988c-0.014,0.051-0.004,0.086,0.039,0.104
	c0.045,0.018,0.102,0.025,0.168,0.025c0.955,0.066,2.352,0.256,4.184,0.572c0.102,0.049,0.172,0.102,0.203,0.152
	c-0.018,0.213-0.168,0.473-0.449,0.785c-0.352,0.381-1.102,1.281-2.246,2.703c-0.895,1.145-1.678,2.027-2.348,2.656
	c-0.316,1.607-0.947,3.012-1.885,4.213c-0.207,0.203-0.82,0.373-1.846,0.512c-0.387,0-1.295,0.094-2.723,0.289
	c-0.102,0.018-0.189-0.025-0.26-0.125c-0.031-0.195,0.045-0.342,0.234-0.447c0.475-0.26,1.232-0.594,2.285-0.988
	c1.049-0.398,1.82-0.736,2.309-1.018c0.414-0.221,0.646-0.494,0.695-0.822c-0.018-0.508-0.141-0.832-0.375-0.967
	c-0.969,0.051-1.584-0.199-1.844-0.75c-0.059-0.143-0.088-0.281-0.088-0.416c0-0.213,0.166-0.725,0.502-1.539
	c0.18-0.445,0.355-0.91,0.527-1.381c0.27-0.5,0.648-0.75,1.137-0.75c0.67,0.051,1.113,0.52,1.33,1.408
	c0.018,0.168,0.08,0.395,0.18,0.672c0.266-0.1,0.771-0.529,1.512-1.283c0.541-0.533,1.061-1.145,1.559-1.838
	c-0.832-0.104-2.07-0.26-3.703-0.473c-0.266-0.029-0.449-0.115-0.555-0.25c0.035-0.283,0.281-0.76,0.734-1.436
	c0.621-0.867,1.445-1.633,2.467-2.314c0.611-0.395,1.58-0.91,2.916-1.547c1.334-0.633,2.307-1.152,2.916-1.547
	c0.316-0.316,0.502-0.473,0.555-0.473C232.231,34.135,232.293,34.18,232.346,34.262z"/>
<path fill="#180D0B" d="M230.434,42.629h0.027c0.025,0,0.039,0.082,0.039,0.242c0.516,0.846,1.158,1.379,1.926,1.6
	c0.092,0.018,0.141,0.039,0.141,0.064c0,0.127-0.525,0.729-1.578,1.803c-0.162,0.152-0.316,0.227-0.461,0.227
	c-0.473,0-1.01-0.348-1.6-1.041c-0.154-0.26-0.232-0.484-0.232-0.672v-0.064c0-0.225,0.154-0.49,0.461-0.783L230.434,42.629z
	 M226.721,53.715h0.027c0.021,0,0.035,0.076,0.035,0.238c0.52,0.848,1.158,1.381,1.924,1.602c0.094,0.018,0.143,0.035,0.143,0.063
	c0,0.129-0.525,0.727-1.574,1.801c-0.162,0.152-0.32,0.23-0.467,0.23c-0.471,0-1.004-0.346-1.598-1.039
	c-0.154-0.266-0.234-0.49-0.234-0.672v-0.066c0-0.229,0.154-0.488,0.467-0.787L226.721,53.715z M229.532,51.404
	c0.158,0.152,0.326,0.285,0.512,0.412c0.184,0.121,0.379,0.221,0.576,0.299c0.031,0.018,0.066,0.025,0.102,0.029
	c0.035,0.006,0.07,0.01,0.102,0.018c0.035,0.01,0.07,0.021,0.096,0.039c0.031,0.018,0.063,0.039,0.084,0.066
	c0,0.025-0.004,0.051-0.018,0.082c-0.014,0.029-0.025,0.055-0.043,0.082c-0.018,0.025-0.041,0.051-0.059,0.074
	c-0.021,0.025-0.043,0.047-0.061,0.064c-0.074,0.086-0.154,0.174-0.238,0.26c-0.08,0.09-0.162,0.178-0.252,0.26
	c-0.082,0.086-0.17,0.174-0.26,0.26c-0.082,0.092-0.172,0.174-0.254,0.248c-0.053,0.051-0.105,0.107-0.164,0.172
	c-0.053,0.066-0.113,0.127-0.172,0.191c-0.061,0.064-0.123,0.125-0.18,0.182c-0.063,0.061-0.119,0.109-0.168,0.143
	c-0.025,0.021-0.061,0.039-0.096,0.049c-0.041,0.008-0.08,0.018-0.125,0.025c-0.096-0.018-0.193-0.043-0.289-0.074
	c-0.102-0.033-0.199-0.076-0.291-0.129c-0.098-0.049-0.186-0.104-0.273-0.156c-0.084-0.057-0.168-0.113-0.242-0.174
	c-0.115-0.074-0.211-0.156-0.291-0.242c-0.084-0.082-0.158-0.174-0.232-0.264c-0.076-0.092-0.143-0.188-0.207-0.287
	c-0.063-0.096-0.129-0.189-0.186-0.285c0,0-0.014,0.014-0.041,0.029c-0.025,0.021-0.053,0.053-0.082,0.088
	c-0.031,0.029-0.066,0.068-0.111,0.111c-0.043,0.045-0.082,0.078-0.113,0.113c-0.035,0.035-0.066,0.064-0.098,0.096
	c-0.031,0.029-0.053,0.051-0.057,0.068c-0.123,0.113-0.242,0.227-0.365,0.344c-0.119,0.121-0.242,0.229-0.367,0.332
	c-0.123,0.102-0.254,0.195-0.391,0.287c-0.143,0.086-0.287,0.16-0.441,0.221c-0.102,0.025-0.201,0.031-0.295,0.014
	c-0.098-0.018-0.189-0.049-0.277-0.082c-0.092-0.039-0.18-0.088-0.273-0.148c-0.088-0.061-0.172-0.113-0.25-0.164
	c-0.07-0.061-0.141-0.121-0.211-0.188c-0.076-0.061-0.15-0.129-0.221-0.207c-0.076-0.074-0.143-0.156-0.203-0.234
	c-0.057-0.082-0.109-0.164-0.154-0.256c-0.039-0.086-0.074-0.178-0.102-0.273c-0.025-0.09-0.035-0.189-0.025-0.289
	c0.018-0.061,0.043-0.117,0.082-0.178c0.041-0.061,0.084-0.113,0.137-0.16c0.049-0.043,0.107-0.096,0.158-0.143
	c0.059-0.053,0.107-0.102,0.15-0.145c0.129-0.1,0.256-0.207,0.375-0.32c0.119-0.117,0.238-0.234,0.357-0.352
	c0.113-0.117,0.232-0.232,0.359-0.346c0.125-0.117,0.248-0.221,0.367-0.313c0.008,0,0.018-0.004,0.021-0.008
	c0.004-0.006,0.008-0.006,0.018-0.006c0.008,0,0.014-0.004,0.018-0.008s0.018,0,0.035,0.008c0.066,0.188,0.15,0.361,0.242,0.521
	c0.098,0.16,0.217,0.316,0.361,0.467c0.098,0.096,0.189,0.184,0.287,0.26c0.092,0.084,0.189,0.156,0.289,0.227
	c0.098,0.064,0.203,0.125,0.309,0.182s0.217,0.096,0.33,0.121l0.041,0.014c0.18-0.16,0.348-0.326,0.506-0.49
	s0.322-0.334,0.484-0.502c0.164-0.17,0.326-0.334,0.484-0.498c0.158-0.166,0.322-0.33,0.484-0.49c0.01-0.01,0.018-0.018,0.031-0.018
	c0.014-0.004,0.027-0.014,0.039-0.021c0.014-0.008,0.027-0.014,0.045-0.014s0.031,0.006,0.039,0.014
	c0.07,0.186,0.158,0.363,0.273,0.529C229.258,51.105,229.387,51.258,229.532,51.404z M232.346,34.262
	c-0.053,0.316-0.229,0.662-0.527,1.043c-0.459,0.59-0.697,0.898-0.723,0.916c-0.242,0.26-0.934,0.666-2.08,1.217
	c-0.902,0.398-2.236,1.057-3.998,1.98c-0.242,0.195-0.574,0.523-0.996,0.988c-0.014,0.051-0.004,0.086,0.039,0.104
	c0.045,0.018,0.102,0.025,0.168,0.025c0.955,0.066,2.352,0.256,4.184,0.572c0.102,0.049,0.172,0.102,0.203,0.152
	c-0.018,0.213-0.168,0.473-0.449,0.785c-0.352,0.381-1.102,1.281-2.246,2.703c-0.895,1.145-1.678,2.027-2.348,2.656
	c-0.316,1.607-0.947,3.012-1.885,4.213c-0.207,0.203-0.82,0.373-1.846,0.512c-0.387,0-1.295,0.094-2.723,0.289
	c-0.102,0.018-0.189-0.025-0.26-0.125c-0.031-0.195,0.045-0.342,0.234-0.447c0.475-0.26,1.232-0.594,2.285-0.988
	c1.049-0.398,1.82-0.736,2.309-1.018c0.414-0.221,0.646-0.494,0.695-0.822c-0.018-0.508-0.141-0.832-0.375-0.967
	c-0.969,0.051-1.584-0.199-1.844-0.75c-0.059-0.143-0.088-0.281-0.088-0.416c0-0.213,0.166-0.725,0.502-1.539
	c0.18-0.445,0.355-0.91,0.527-1.381c0.27-0.5,0.648-0.75,1.137-0.75c0.67,0.051,1.113,0.52,1.33,1.408
	c0.018,0.168,0.08,0.395,0.18,0.672c0.266-0.1,0.771-0.529,1.512-1.283c0.541-0.533,1.061-1.145,1.559-1.838
	c-0.832-0.104-2.07-0.26-3.703-0.473c-0.266-0.029-0.449-0.115-0.555-0.25c0.035-0.283,0.281-0.76,0.734-1.436
	c0.621-0.867,1.445-1.633,2.467-2.314c0.611-0.395,1.58-0.91,2.916-1.547c1.334-0.633,2.307-1.152,2.916-1.547
	c0.316-0.316,0.502-0.473,0.555-0.473C232.231,34.135,232.293,34.18,232.346,34.262z"/>
<path fill-rule="evenodd" clip-rule="evenodd" fill="#180D0B" d="M98.251,26.433c-0.006,0.006-0.012,0.012-0.016,0.016
	c-0.057,0.068-0.1,0.131-0.084,0.219c0.031,0.002,0.189-0.059,0.252-0.084l0.201-0.164c-0.156,0.08-0.176,0.154-0.393,0.164
	L98.251,26.433z"/>
<path fill-rule="evenodd" clip-rule="evenodd" fill="#180D0B" d="M73.696,25.621l-0.115,0.027c0.018-0.105,0.041-0.104,0.08-0.201
	c-0.088,0.064-0.135,0.127-0.131,0.252c0.059,0.004,0.057,0.021,0.115-0.01C73.692,25.662,73.685,25.64,73.696,25.621"/>
<path fill-rule="evenodd" clip-rule="evenodd" fill="#180D0B" d="M121.738,26.16c-0.105,0.037-0.094,0.092-0.215,0.063l0.02-0.121
	c-0.055,0.043-0.02-0.063-0.058,0.074C121.555,26.357,121.664,26.246,121.738,26.16"/>
<path fill-rule="evenodd" clip-rule="evenodd" fill="#180D0B" d="M170.368,21.554c0.086-0.006,0.123-0.031,0.162,0.029
	c0.021,0.035-0.002,0.051,0.051,0.127c-0.008-0.088-0.025-0.146-0.068-0.197c-0.031-0.002-0.043-0.008-0.078,0.002
	C170.358,21.536,170.387,21.538,170.368,21.554"/>
<path fill-rule="evenodd" clip-rule="evenodd" fill="#180D0B" d="M177.708,23.003c-0.031-0.09-0.09-0.131-0.184-0.168
	c0.025,0.035,0.006,0.018,0.037,0.047l0.088,0.074C177.698,23.001,177.651,22.968,177.708,23.003"/>
<path fill-rule="evenodd" clip-rule="evenodd" fill="#180D0B" d="M171.321,20.948c-0.006-0.004-0.014-0.018-0.016-0.012
	c-0.004,0.004-0.014-0.01-0.016-0.014l-0.059-0.043c-0.006-0.004-0.012-0.008-0.016-0.012l-0.035-0.025
	C171.213,20.933,171.221,20.931,171.321,20.948"/>
<path fill-rule="evenodd" clip-rule="evenodd" fill="#180D0B" d="M122.518,25.734c0.092-0.035,0.113-0.043,0.162-0.115
	L122.518,25.734z"/>
</svg>
