<?xml version="1.0" encoding="utf-8"?>
<!-- Generator: Adobe Illustrator 16.0.0, SVG Export Plug-In . SVG Version: 6.00 Build 0)  -->
<!DOCTYPE svg PUBLIC "-//W3C//DTD SVG 1.1//EN" "http://www.w3.org/Graphics/SVG/1.1/DTD/svg11.dtd">
<svg version="1.1" id="Layer_1" xmlns="http://www.w3.org/2000/svg" xmlns:xlink="http://www.w3.org/1999/xlink" x="0px" y="0px"
	 width="111.031px" height="25.879px" viewBox="0 0 111.031 25.879" enable-background="new 0 0 111.031 25.879"
	 xml:space="preserve">
<g>
	<defs>
		<polyline id="SVGID_1_" points="301.262,-69.071 -175.738,-69.071 -175.738,524.929 301.262,524.929 		"/>
	</defs>
	<clipPath id="SVGID_2_">
		<use xlink:href="#SVGID_1_"  overflow="visible"/>
	</clipPath>
	
		<path clip-path="url(#SVGID_2_)" fill="none" stroke="#FEFEFE" stroke-width="2.0001" stroke-linecap="round" stroke-linejoin="round" stroke-miterlimit="2.6131" d="
		M46.396,12.407c0.872,0.624,1.304,1.499,1.304,2.626c0,0.71-0.216,1.521-0.644,2.426c-0.387,0.758-0.784,1.512-1.189,2.258
		c-0.238,0.481-0.837,0.78-1.792,0.889c-0.604,0.139-1.529,0.312-2.775,0.52c-0.035,0.018-0.092-0.052-0.181-0.212
		c0.106-0.221,0.313-0.386,0.634-0.498c0.542-0.204,0.81-0.303,0.81-0.303c0.776-0.347,1.895-0.949,3.356-1.803
		c0.3-0.329,0.41-0.746,0.322-1.244c-0.066-0.815-0.683-1.517-1.845-2.106c-0.018-0.069-0.027-0.147-0.027-0.23
		c0-0.16,0.062-0.381,0.181-0.654c0.124-0.277,0.189-0.468,0.207-0.576c0.132-0.308,0.339-0.745,0.634-1.322
		c0.075-0.134,0.167-0.204,0.269-0.204c0.088,0,0.225,0.07,0.41,0.204C46.255,12.311,46.365,12.389,46.396,12.407z M39.895,6.552
		h0.066l-0.066,2.743l0.066,4.19c0,3.25-0.454,5.772-1.356,7.566c-0.119,0.251-0.207,0.381-0.269,0.381h-0.027
		c-0.07,0-0.11-0.112-0.127-0.333c0.207-0.693,0.308-1.946,0.308-3.757v-1.75l-0.088-3.224c0-0.832,0.296-2.106,0.89-3.835
		C39.591,7.297,39.794,6.639,39.895,6.552z M108.854,8.203l1.186,0.178c0.171,0.017,0.356,0.043,0.55,0.078
		c0.194,0.03,0.335,0.113,0.432,0.238c0.035,0.087-0.021,0.212-0.167,0.381c-1.652,1.2-2.89,2.73-3.718,4.584
		c-0.233,0.499-0.709,0.889-1.432,1.166c-0.858,0.347-1.404,0.646-1.638,0.889c-0.286,0.364-0.556,0.858-0.815,1.473
		c-0.229,0.524-0.453,1.044-0.669,1.564c-0.119,0.589-0.418,1.17-0.89,1.737c-0.335,0.278-1.057,0.477-2.167,0.599
		c-0.604,0.073-1.52,0.173-2.748,0.29c-0.054-0.018-0.146-0.052-0.273-0.1c0.018-0.212,0.128-0.373,0.33-0.485
		c0.203-0.108,0.4-0.212,0.599-0.304c1.075-0.55,2.141-1.113,3.203-1.69c1.193-0.762,1.994-1.664,2.396-2.704
		c0.167-0.533,0.484-1.313,0.955-2.336c0.388-0.576,1.022-0.94,1.898-1.092c0.265-0.082,0.736-0.472,1.405-1.166
		c0.189-0.265,0.67-0.828,1.432-1.69c-0.317-0.078-0.793-0.182-1.432-0.316c-0.181-0.035-0.493-0.135-0.942-0.299
		c-0.445-0.165-0.793-0.247-1.044-0.247c-0.335,0-0.625,0.138-0.863,0.416c-0.146,0.173-0.356,0.529-0.634,1.07
		c-0.11,0.152-0.233,0.187-0.375,0.1c-0.101-0.07-0.127-0.199-0.074-0.395c0.255-0.71,0.4-1.092,0.423-1.14
		c0.171-0.398,0.374-0.728,0.607-0.992c0.388-0.347,0.858-0.52,1.418-0.52c0.37,0,0.886,0.095,1.537,0.29
		C108.119,8.03,108.621,8.168,108.854,8.203z M95.602,16.394c-0.119,0.845-0.577,1.971-1.369,3.375
		c-0.212,0.381-0.582,0.637-1.11,0.776c-0.436,0.108-0.89,0.221-1.353,0.342c-0.334,0.1-0.845,0.247-1.523,0.442
		c-0.163,0-0.26-0.048-0.295-0.152c0-0.126,0.114-0.256,0.348-0.395c0.705-0.412,1.409-0.819,2.114-1.217
		c0.775-0.49,1.432-0.984,1.978-1.487c0.163-0.212,0.212-0.498,0.154-0.862c-0.105-0.255-0.225-0.429-0.361-0.52
		c-0.181,0.035-0.348,0.052-0.507,0.052c-0.634,0-1.109-0.217-1.431-0.65c-0.119-0.204-0.181-0.416-0.181-0.646
		c0-0.247,0.079-0.55,0.233-0.914c0.145-0.273,0.277-0.559,0.4-0.862c0.119-0.308,0.233-0.633,0.348-0.979
		c0.189-0.381,0.441-0.628,0.763-0.75c0.585-0.108,1.052,0.126,1.404,0.697c0.388,0.646,0.582,1.409,0.582,2.289
		C95.796,15.396,95.729,15.882,95.602,16.394z M86.811,10.097h0.105c0.498,0,0.912,0.26,1.238,0.784
		c0.361,0.628,0.542,1.343,0.542,2.145c0,0.671-0.119,1.352-0.361,2.045c-0.251,0.802-0.494,1.439-0.735,1.902
		c-0.146,0.325-0.56,0.862-1.238,1.612c-0.326,0.342-0.585,0.572-0.775,0.702c-0.308,0.208-0.639,0.399-0.995,0.568
		c-0.472,0.238-1.158,0.468-2.062,0.689c-0.955,0.243-1.92,0.455-2.894,0.633c-1.33,0.212-2.59,0.316-3.779,0.316
		c-1.55,0-2.924-0.186-4.126-0.559c-0.242-0.108-0.48-0.247-0.714-0.416c-0.353-0.29-0.577-0.524-0.683-0.71
		c-0.242-0.477-0.361-1.071-0.361-1.79v-0.156c0-0.811,0.158-1.885,0.48-3.224c0.074-0.1,0.123-0.152,0.141-0.152h0.026
		c0.075,0,0.114,0.083,0.114,0.243l-0.039,1.508c0,0.611,0.321,1.066,0.969,1.36c0.507,0.195,0.898,0.325,1.176,0.395
		c1.031,0.251,2.396,0.381,4.101,0.381c2.616,0,5.057-0.333,7.315-1.005c0.656-0.169,1.212-0.36,1.665-0.572
		c0.269-0.091,0.67-0.355,1.202-0.784c0.388-0.329,0.595-0.546,0.631-0.65c0.044-0.048,0.065-0.083,0.065-0.1
		c-0.035-0.321-0.093-0.494-0.167-0.52l-0.04-0.026h-0.026c-0.093,0.169-0.291,0.291-0.595,0.368
		c-0.189,0.052-0.321,0.074-0.396,0.074c-0.295,0-0.625-0.147-0.995-0.442c-0.137-0.161-0.207-0.256-0.207-0.282
		c-0.128-0.195-0.193-0.403-0.193-0.633V13.75c0-0.295,0.162-0.814,0.488-1.56c0.124-0.416,0.229-0.858,0.326-1.334
		c0.109-0.304,0.277-0.524,0.502-0.659C86.635,10.127,86.735,10.097,86.811,10.097z M86.375,4.229h0.026
		c0.021,0,0.035,0.083,0.035,0.243c0.52,0.845,1.158,1.378,1.925,1.599c0.092,0.017,0.141,0.039,0.141,0.061
		c0,0.13-0.524,0.728-1.572,1.803c-0.163,0.156-0.321,0.229-0.467,0.229c-0.472,0-1.005-0.347-1.599-1.04
		c-0.154-0.265-0.233-0.485-0.233-0.672V6.388c0-0.23,0.153-0.49,0.467-0.789L86.375,4.229z M76.324,24.717l4.58-2.665
		c0.066,0.018,0.097,0.052,0.088,0.1c0,0.034-0.018,0.095-0.057,0.177c-0.04,0.087-0.063,0.147-0.07,0.182
		c-0.045,0.368-0.296,0.693-0.749,0.962c-0.714,0.39-1.102,0.611-1.163,0.663c-0.788,0.438-1.744,1.01-2.863,1.711
		c-0.154,0.07-0.22,0.022-0.193-0.139C75.998,25.489,76.144,25.159,76.324,24.717z M59.715,8.875
		c-0.172-0.117-0.374-0.178-0.608-0.178c-0.454,0-0.894,0.208-1.312,0.624c-0.124,0.221-0.181,0.468-0.181,0.75
		c0,0.377,0.092,0.758,0.281,1.14c0.088,0.147,0.247,0.312,0.476,0.499c1.026-0.568,1.59-1.14,1.691-1.716
		C60.151,9.512,60.032,9.139,59.715,8.875z M66.723,6.743c0.198,0.381,0.814,1.144,1.858,2.283c0.018,0.147-0.018,0.286-0.097,0.421
		C68.4,9.581,68.325,9.715,68.26,9.841c-0.251,0.294-0.489,0.581-0.714,0.849c-0.317,0.347-0.625,0.52-0.93,0.52
		c-0.083,0-0.18-0.017-0.295-0.048c-0.757-0.333-1.264-0.498-1.523-0.498c-0.198,0-0.374,0.035-0.529,0.104
		c-0.281,0.16-0.986,0.771-2.113,1.829c-0.811,0.758-1.595,1.14-2.348,1.14c-0.758,0-1.313-0.113-1.665-0.342
		c-0.216,0.143-0.542,0.342-0.982,0.598c-0.74,0.347-1.479,0.693-2.22,1.04c-0.85,0.459-1.497,0.997-1.933,1.612
		c-0.335,0.49-0.908,1.409-1.718,2.756c-0.705,1.183-1.304,2.093-1.793,2.73c-1.215,1.564-2.951,2.786-5.215,3.67
		c-0.207,0-0.326-0.026-0.361-0.078c-0.035,0-0.049-0.043-0.053-0.125c3.519-2.414,5.694-4.667,6.532-6.769
		c1.193-3.064,2.726-5.04,4.594-5.928c0.559-0.256,1.238-0.52,2.039-0.802c-0.146-0.381-0.22-0.775-0.22-1.191
		c0-1.2,0.449-2.245,1.356-3.125c0.418-0.412,0.85-0.62,1.291-0.62c0.102,0,0.207,0.009,0.322,0.026
		c0.523,0.03,0.903,0.325,1.136,0.875c0.066,0.277,0.102,0.551,0.102,0.811c0,0.975-0.511,2.076-1.537,3.302
		c0.81,0.083,1.497-0.009,2.061-0.273c0.563-0.269,1.193-0.854,1.889-1.764c0.696-0.91,1.313-1.495,1.846-1.759
		c0.225-0.576,0.361-0.923,0.414-1.04c0.194-0.381,0.437-0.693,0.723-0.94C66.568,6.383,66.67,6.496,66.723,6.743z M57.033,3.519
		l2-1.955H59.2c0.388,0.455,0.986,1.066,1.792,1.829v0.251c-0.387,0.364-0.982,0.927-1.792,1.69c-0.08,0.035-0.15,0.052-0.22,0.052
		c-0.137,0-0.282-0.065-0.432-0.191c-0.15-0.13-0.287-0.247-0.405-0.355C57.557,4.308,57.187,3.866,57.033,3.519z M18.604,0.013
		L18.67,0l0.013,0.013c0.053,0.291-0.115,0.828-0.502,1.612c-0.044,0.086-0.079,0.169-0.11,0.247
		c-0.031,0.083-0.057,0.156-0.083,0.226c-0.044,0.117-0.075,0.264-0.097,0.442s-0.026,0.355-0.009,0.529s0.066,0.325,0.141,0.451
		c0.079,0.125,0.194,0.204,0.352,0.229c0,0,0.018-0.047,0.058-0.134c0.04-0.091,0.083-0.19,0.136-0.299
		c0.049-0.108,0.097-0.217,0.146-0.325c0.048-0.104,0.083-0.173,0.11-0.208c0.097,0.069,0.172,0.169,0.233,0.303
		c0.062,0.139,0.102,0.265,0.128,0.381V3.48c0.062,0.329,0,0.706-0.181,1.131c-0.198,0.321-0.431,0.507-0.695,0.559
		c-0.146,0.026-0.273,0.004-0.383-0.065c-0.106-0.07-0.199-0.156-0.282-0.264c-0.083-0.113-0.146-0.234-0.193-0.364
		c-0.049-0.13-0.084-0.251-0.11-0.359c-0.128-0.637,0.026-1.513,0.467-2.631c0.229-0.524,0.454-0.949,0.669-1.27L18.604,0.013z
		 M17.133,7.111c-0.058,0.026-0.119,0.065-0.181,0.121c-0.057,0.057-0.119,0.108-0.185,0.156c-0.066,0.052-0.132,0.086-0.207,0.104
		c-0.075,0.017-0.15-0.004-0.225-0.065c-0.097-0.057-0.172-0.144-0.229-0.251c-0.053-0.113-0.092-0.239-0.114-0.381
		c-0.022-0.143-0.027-0.29-0.018-0.438c0.008-0.147,0.026-0.295,0.048-0.438c0.097-0.407,0.255-0.641,0.484-0.702
		c0.229-0.056,0.506,0.039,0.833,0.295c0.163,0.134,0.299,0.273,0.41,0.42c0.105,0.143,0.198,0.29,0.273,0.442
		c0.07,0.161,0.136,0.33,0.194,0.502c0.062,0.174,0.11,0.338,0.146,0.503c0.04-0.156,0.079-0.329,0.11-0.524
		c0.026-0.195,0.066-0.39,0.105-0.593c0.044-0.204,0.11-0.408,0.203-0.603C18.868,5.46,19,5.27,19.172,5.092
		c0.132-0.143,0.299-0.243,0.502-0.303c0.199-0.043,0.37-0.021,0.52,0.065c0.145,0.083,0.264,0.195,0.361,0.342
		c0.009,0.243-0.031,0.52-0.119,0.832c-0.083,0.308-0.176,0.606-0.269,0.893C20.124,6.83,20.08,6.721,20.04,6.604
		c-0.044-0.121-0.128-0.199-0.247-0.243c-0.207-0.061-0.378-0.034-0.515,0.078c-0.141,0.108-0.247,0.23-0.326,0.369
		c-0.031,0.065-0.075,0.186-0.128,0.359c-0.053,0.173-0.105,0.381-0.167,0.624c-0.062,0.238-0.118,0.494-0.176,0.767
		c-0.053,0.269-0.106,0.529-0.154,0.775c-0.044,0.243-0.084,0.464-0.115,0.654c-0.031,0.191-0.048,0.325-0.057,0.412
		c-0.027-0.009-0.04-0.043-0.04-0.096c0-0.056-0.022-0.078-0.066-0.069c-0.018-0.069-0.031-0.134-0.048-0.199
		c-0.018-0.061-0.026-0.151-0.026-0.273c0-0.243-0.009-0.494-0.022-0.75c-0.013-0.251-0.043-0.494-0.097-0.728
		c-0.048-0.234-0.132-0.451-0.251-0.659C17.49,7.419,17.332,7.246,17.133,7.111z M36.464,13.473l0.053,0.026v0.061
		c-0.07,0.815-0.502,1.924-1.29,3.328c-0.639,0.932-1.863,1.69-3.678,2.284c-1.515,0.533-3.946,1.062-7.29,1.586
		c-4.951,0.503-8.311,0.75-10.094,0.75h-3.277c-4.135,0-7.254-0.364-9.355-1.092c-0.687-0.33-1.136-0.758-1.352-1.296
		C0.092,18.79,0.035,18.378,0,17.875l0.049-1.178l0.026-0.026h0.106c0.669,0.611,2.828,1.097,6.474,1.46
		c2.489,0.229,4.92,0.342,7.294,0.342h0.669c8.016,0,14.5-0.893,19.445-2.678c1.146-0.49,1.841-1.036,2.093-1.638
		C36.257,13.702,36.363,13.473,36.464,13.473z M20.089,11.111l0.867,1.04c0.445,0.347,0.956,0.637,1.533,0.862v0.052
		c-0.102,0.481-0.789,1.261-2.066,2.336h-0.128c-0.74,0-1.471-0.494-2.193-1.486c-0.912,1.126-1.568,1.69-1.973,1.69
		c-0.604,0-1.229-0.459-1.885-1.369c-0.084-0.165-0.154-0.442-0.208-0.841c0.722-0.811,1.414-1.512,2.066-2.106h0.026
		c0.661,1.148,1.322,1.803,1.973,1.954L20.089,11.111z"/>
	<path clip-path="url(#SVGID_2_)" fill="#C52F33" d="M46.396,12.407c0.872,0.624,1.304,1.499,1.304,2.626
		c0,0.71-0.216,1.521-0.644,2.426c-0.387,0.758-0.784,1.512-1.189,2.258c-0.238,0.481-0.837,0.78-1.792,0.889
		c-0.604,0.139-1.529,0.312-2.775,0.52c-0.035,0.018-0.092-0.052-0.181-0.212c0.106-0.221,0.313-0.386,0.634-0.498
		c0.542-0.204,0.81-0.303,0.81-0.303c0.776-0.347,1.895-0.949,3.356-1.803c0.3-0.329,0.41-0.746,0.322-1.244
		c-0.066-0.815-0.683-1.517-1.845-2.106c-0.018-0.069-0.027-0.147-0.027-0.23c0-0.16,0.062-0.381,0.181-0.654
		c0.124-0.277,0.189-0.468,0.207-0.576c0.132-0.308,0.339-0.745,0.634-1.322c0.075-0.134,0.167-0.204,0.269-0.204
		c0.088,0,0.225,0.07,0.41,0.204C46.255,12.311,46.365,12.389,46.396,12.407 M39.895,6.552h0.066l-0.066,2.743l0.066,4.19
		c0,3.25-0.454,5.772-1.356,7.566c-0.119,0.251-0.207,0.381-0.269,0.381h-0.027c-0.07,0-0.11-0.112-0.127-0.333
		c0.207-0.693,0.308-1.946,0.308-3.757v-1.75l-0.088-3.224c0-0.832,0.296-2.106,0.89-3.835C39.591,7.297,39.794,6.639,39.895,6.552z
		 M108.854,8.203l1.186,0.178c0.171,0.017,0.356,0.043,0.55,0.078c0.194,0.03,0.335,0.113,0.432,0.238
		c0.035,0.087-0.021,0.212-0.167,0.381c-1.652,1.2-2.89,2.73-3.718,4.584c-0.233,0.499-0.709,0.889-1.432,1.166
		c-0.858,0.347-1.404,0.646-1.638,0.889c-0.286,0.364-0.556,0.858-0.815,1.473c-0.229,0.524-0.453,1.044-0.669,1.564
		c-0.119,0.589-0.418,1.17-0.89,1.737c-0.335,0.278-1.057,0.477-2.167,0.599c-0.604,0.073-1.52,0.173-2.748,0.29
		c-0.054-0.018-0.146-0.052-0.273-0.1c0.018-0.212,0.128-0.373,0.33-0.485c0.203-0.108,0.4-0.212,0.599-0.304
		c1.075-0.55,2.141-1.113,3.203-1.69c1.193-0.762,1.994-1.664,2.396-2.704c0.167-0.533,0.484-1.313,0.955-2.336
		c0.388-0.576,1.022-0.94,1.898-1.092c0.265-0.082,0.736-0.472,1.405-1.166c0.189-0.265,0.67-0.828,1.432-1.69
		c-0.317-0.078-0.793-0.182-1.432-0.316c-0.181-0.035-0.493-0.135-0.942-0.299c-0.445-0.165-0.793-0.247-1.044-0.247
		c-0.335,0-0.625,0.138-0.863,0.416c-0.146,0.173-0.356,0.529-0.634,1.07c-0.11,0.152-0.233,0.187-0.375,0.1
		c-0.101-0.07-0.127-0.199-0.074-0.395c0.255-0.71,0.4-1.092,0.423-1.14c0.171-0.398,0.374-0.728,0.607-0.992
		c0.388-0.347,0.858-0.52,1.418-0.52c0.37,0,0.886,0.095,1.537,0.29C108.119,8.03,108.621,8.168,108.854,8.203z M95.602,16.394
		c-0.119,0.845-0.577,1.971-1.369,3.375c-0.212,0.381-0.582,0.637-1.11,0.776c-0.436,0.108-0.89,0.221-1.353,0.342
		c-0.334,0.1-0.845,0.247-1.523,0.442c-0.163,0-0.26-0.048-0.295-0.152c0-0.126,0.114-0.256,0.348-0.395
		c0.705-0.412,1.409-0.819,2.114-1.217c0.775-0.49,1.432-0.984,1.978-1.487c0.163-0.212,0.212-0.498,0.154-0.862
		c-0.105-0.255-0.225-0.429-0.361-0.52c-0.181,0.035-0.348,0.052-0.507,0.052c-0.634,0-1.109-0.217-1.431-0.65
		c-0.119-0.204-0.181-0.416-0.181-0.646c0-0.247,0.079-0.55,0.233-0.914c0.145-0.273,0.277-0.559,0.4-0.862
		c0.119-0.308,0.233-0.633,0.348-0.979c0.189-0.381,0.441-0.628,0.763-0.75c0.585-0.108,1.052,0.126,1.404,0.697
		c0.388,0.646,0.582,1.409,0.582,2.289C95.796,15.396,95.729,15.882,95.602,16.394z M86.811,10.097h0.105
		c0.498,0,0.912,0.26,1.238,0.784c0.361,0.628,0.542,1.343,0.542,2.145c0,0.671-0.119,1.352-0.361,2.045
		c-0.251,0.802-0.494,1.439-0.735,1.902c-0.146,0.325-0.56,0.862-1.238,1.612c-0.326,0.342-0.585,0.572-0.775,0.702
		c-0.308,0.208-0.639,0.399-0.995,0.568c-0.472,0.238-1.158,0.468-2.062,0.689c-0.955,0.243-1.92,0.455-2.894,0.633
		c-1.33,0.212-2.59,0.316-3.779,0.316c-1.55,0-2.924-0.186-4.126-0.559c-0.242-0.108-0.48-0.247-0.714-0.416
		c-0.353-0.29-0.577-0.524-0.683-0.71c-0.242-0.477-0.361-1.071-0.361-1.79v-0.156c0-0.811,0.158-1.885,0.48-3.224
		c0.074-0.1,0.123-0.152,0.141-0.152h0.026c0.075,0,0.114,0.083,0.114,0.243l-0.039,1.508c0,0.611,0.321,1.066,0.969,1.36
		c0.507,0.195,0.898,0.325,1.176,0.395c1.031,0.251,2.396,0.381,4.101,0.381c2.616,0,5.057-0.333,7.315-1.005
		c0.656-0.169,1.212-0.36,1.665-0.572c0.269-0.091,0.67-0.355,1.202-0.784c0.388-0.329,0.595-0.546,0.631-0.65
		c0.044-0.048,0.065-0.083,0.065-0.1c-0.035-0.321-0.093-0.494-0.167-0.52l-0.04-0.026h-0.026c-0.093,0.169-0.291,0.291-0.595,0.368
		c-0.189,0.052-0.321,0.074-0.396,0.074c-0.295,0-0.625-0.147-0.995-0.442c-0.137-0.161-0.207-0.256-0.207-0.282
		c-0.128-0.195-0.193-0.403-0.193-0.633V13.75c0-0.295,0.162-0.814,0.488-1.56c0.124-0.416,0.229-0.858,0.326-1.334
		c0.109-0.304,0.277-0.524,0.502-0.659C86.635,10.127,86.735,10.097,86.811,10.097z M86.375,4.229h0.026
		c0.021,0,0.035,0.083,0.035,0.243c0.52,0.845,1.158,1.378,1.925,1.599c0.092,0.017,0.141,0.039,0.141,0.061
		c0,0.13-0.524,0.728-1.572,1.803c-0.163,0.156-0.321,0.229-0.467,0.229c-0.472,0-1.005-0.347-1.599-1.04
		c-0.154-0.265-0.233-0.485-0.233-0.672V6.388c0-0.23,0.153-0.49,0.467-0.789L86.375,4.229z M76.324,24.717l4.58-2.665
		c0.066,0.018,0.097,0.052,0.088,0.1c0,0.034-0.018,0.095-0.057,0.177c-0.04,0.087-0.063,0.147-0.07,0.182
		c-0.045,0.368-0.296,0.693-0.749,0.962c-0.714,0.39-1.102,0.611-1.163,0.663c-0.788,0.438-1.744,1.01-2.863,1.711
		c-0.154,0.07-0.22,0.022-0.193-0.139C75.998,25.489,76.144,25.159,76.324,24.717z M59.715,8.875
		c-0.172-0.117-0.374-0.178-0.608-0.178c-0.454,0-0.894,0.208-1.312,0.624c-0.124,0.221-0.181,0.468-0.181,0.75
		c0,0.377,0.092,0.758,0.281,1.14c0.088,0.147,0.247,0.312,0.476,0.499c1.026-0.568,1.59-1.14,1.691-1.716
		C60.151,9.512,60.032,9.139,59.715,8.875z M66.723,6.743c0.198,0.381,0.814,1.144,1.858,2.283c0.018,0.147-0.018,0.286-0.097,0.421
		C68.4,9.581,68.325,9.715,68.26,9.841c-0.251,0.294-0.489,0.581-0.714,0.849c-0.317,0.347-0.625,0.52-0.93,0.52
		c-0.083,0-0.18-0.017-0.295-0.048c-0.757-0.333-1.264-0.498-1.523-0.498c-0.198,0-0.374,0.035-0.529,0.104
		c-0.281,0.16-0.986,0.771-2.113,1.829c-0.811,0.758-1.595,1.14-2.348,1.14c-0.758,0-1.313-0.113-1.665-0.342
		c-0.216,0.143-0.542,0.342-0.982,0.598c-0.74,0.347-1.479,0.693-2.22,1.04c-0.85,0.459-1.497,0.997-1.933,1.612
		c-0.335,0.49-0.908,1.409-1.718,2.756c-0.705,1.183-1.304,2.093-1.793,2.73c-1.215,1.564-2.951,2.786-5.215,3.67
		c-0.207,0-0.326-0.026-0.361-0.078c-0.035,0-0.049-0.043-0.053-0.125c3.519-2.414,5.694-4.667,6.532-6.769
		c1.193-3.064,2.726-5.04,4.594-5.928c0.559-0.256,1.238-0.52,2.039-0.802c-0.146-0.381-0.22-0.775-0.22-1.191
		c0-1.2,0.449-2.245,1.356-3.125c0.418-0.412,0.85-0.62,1.291-0.62c0.102,0,0.207,0.009,0.322,0.026
		c0.523,0.03,0.903,0.325,1.136,0.875c0.066,0.277,0.102,0.551,0.102,0.811c0,0.975-0.511,2.076-1.537,3.302
		c0.81,0.083,1.497-0.009,2.061-0.273c0.563-0.269,1.193-0.854,1.889-1.764c0.696-0.91,1.313-1.495,1.846-1.759
		c0.225-0.576,0.361-0.923,0.414-1.04c0.194-0.381,0.437-0.693,0.723-0.94C66.568,6.383,66.67,6.496,66.723,6.743z M57.033,3.519
		l2-1.955H59.2c0.388,0.455,0.986,1.066,1.792,1.829v0.251c-0.387,0.364-0.982,0.927-1.792,1.69c-0.08,0.035-0.15,0.052-0.22,0.052
		c-0.137,0-0.282-0.065-0.432-0.191c-0.15-0.13-0.287-0.247-0.405-0.355C57.557,4.308,57.187,3.866,57.033,3.519z M18.604,0.013
		L18.67,0l0.013,0.013c0.053,0.291-0.115,0.828-0.502,1.612c-0.044,0.086-0.079,0.169-0.11,0.247
		c-0.031,0.083-0.057,0.156-0.083,0.226c-0.044,0.117-0.075,0.264-0.097,0.442s-0.026,0.355-0.009,0.529s0.066,0.325,0.141,0.451
		c0.079,0.125,0.194,0.204,0.352,0.229c0,0,0.018-0.047,0.058-0.134c0.04-0.091,0.083-0.19,0.136-0.299
		c0.049-0.108,0.097-0.217,0.146-0.325c0.048-0.104,0.083-0.173,0.11-0.208c0.097,0.069,0.172,0.169,0.233,0.303
		c0.062,0.139,0.102,0.265,0.128,0.381V3.48c0.062,0.329,0,0.706-0.181,1.131c-0.198,0.321-0.431,0.507-0.695,0.559
		c-0.146,0.026-0.273,0.004-0.383-0.065c-0.106-0.07-0.199-0.156-0.282-0.264c-0.083-0.113-0.146-0.234-0.193-0.364
		c-0.049-0.13-0.084-0.251-0.11-0.359c-0.128-0.637,0.026-1.513,0.467-2.631c0.229-0.524,0.454-0.949,0.669-1.27L18.604,0.013z
		 M17.133,7.111c-0.058,0.026-0.119,0.065-0.181,0.121c-0.057,0.057-0.119,0.108-0.185,0.156c-0.066,0.052-0.132,0.086-0.207,0.104
		c-0.075,0.017-0.15-0.004-0.225-0.065c-0.097-0.057-0.172-0.144-0.229-0.251c-0.053-0.113-0.092-0.239-0.114-0.381
		c-0.022-0.143-0.027-0.29-0.018-0.438c0.008-0.147,0.026-0.295,0.048-0.438c0.097-0.407,0.255-0.641,0.484-0.702
		c0.229-0.056,0.506,0.039,0.833,0.295c0.163,0.134,0.299,0.273,0.41,0.42c0.105,0.143,0.198,0.29,0.273,0.442
		c0.07,0.161,0.136,0.33,0.194,0.502c0.062,0.174,0.11,0.338,0.146,0.503c0.04-0.156,0.079-0.329,0.11-0.524
		c0.026-0.195,0.066-0.39,0.105-0.593c0.044-0.204,0.11-0.408,0.203-0.603C18.868,5.46,19,5.27,19.172,5.092
		c0.132-0.143,0.299-0.243,0.502-0.303c0.199-0.043,0.37-0.021,0.52,0.065c0.145,0.083,0.264,0.195,0.361,0.342
		c0.009,0.243-0.031,0.52-0.119,0.832c-0.083,0.308-0.176,0.606-0.269,0.893C20.124,6.83,20.08,6.721,20.04,6.604
		c-0.044-0.121-0.128-0.199-0.247-0.243c-0.207-0.061-0.378-0.034-0.515,0.078c-0.141,0.108-0.247,0.23-0.326,0.369
		c-0.031,0.065-0.075,0.186-0.128,0.359c-0.053,0.173-0.105,0.381-0.167,0.624c-0.062,0.238-0.118,0.494-0.176,0.767
		c-0.053,0.269-0.106,0.529-0.154,0.775c-0.044,0.243-0.084,0.464-0.115,0.654c-0.031,0.191-0.048,0.325-0.057,0.412
		c-0.027-0.009-0.04-0.043-0.04-0.096c0-0.056-0.022-0.078-0.066-0.069c-0.018-0.069-0.031-0.134-0.048-0.199
		c-0.018-0.061-0.026-0.151-0.026-0.273c0-0.243-0.009-0.494-0.022-0.75c-0.013-0.251-0.043-0.494-0.097-0.728
		c-0.048-0.234-0.132-0.451-0.251-0.659C17.49,7.419,17.332,7.246,17.133,7.111z M36.464,13.473l0.053,0.026v0.061
		c-0.07,0.815-0.502,1.924-1.29,3.328c-0.639,0.932-1.863,1.69-3.678,2.284c-1.515,0.533-3.946,1.062-7.29,1.586
		c-4.951,0.503-8.311,0.75-10.094,0.75h-3.277c-4.135,0-7.254-0.364-9.355-1.092c-0.687-0.33-1.136-0.758-1.352-1.296
		C0.092,18.79,0.035,18.378,0,17.875l0.049-1.178l0.026-0.026h0.106c0.669,0.611,2.828,1.097,6.474,1.46
		c2.489,0.229,4.92,0.342,7.294,0.342h0.669c8.016,0,14.5-0.893,19.445-2.678c1.146-0.49,1.841-1.036,2.093-1.638
		C36.257,13.702,36.363,13.473,36.464,13.473z M20.089,11.111l0.867,1.04c0.445,0.347,0.956,0.637,1.533,0.862v0.052
		c-0.102,0.481-0.789,1.261-2.066,2.336h-0.128c-0.74,0-1.471-0.494-2.193-1.486c-0.912,1.126-1.568,1.69-1.973,1.69
		c-0.604,0-1.229-0.459-1.885-1.369c-0.084-0.165-0.154-0.442-0.208-0.841c0.722-0.811,1.414-1.512,2.066-2.106h0.026
		c0.661,1.148,1.322,1.803,1.973,1.954L20.089,11.111z"/>
</g>
</svg>
